<svg width="46" height="46" viewBox="0 0 46 46" fill="none" xmlns="http://www.w3.org/2000/svg">
<path d="M23 40.295C25.2161 40.295 27.4104 39.8585 29.4578 39.0105C31.5052 38.1624 33.3654 36.9194 34.9324 35.3524C36.4994 33.7854 37.7424 31.9251 38.5905 29.8778C39.4385 27.8304 39.875 25.636 39.875 23.42C39.875 21.2039 39.4385 19.0096 38.5905 16.9622C37.7424 14.9148 36.4994 13.0545 34.9324 11.4876C33.3654 9.92057 31.5052 8.67756 29.4578 7.82952C27.4104 6.98147 25.2161 6.54498 23 6.54498C18.5245 6.54498 14.2323 8.32288 11.0676 11.4876C7.9029 14.6522 6.125 18.9445 6.125 23.42C6.125 27.8955 7.9029 32.1877 11.0676 35.3524C14.2323 38.5171 18.5245 40.295 23 40.295ZM43.625 23.42C43.625 34.8106 34.3906 44.045 23 44.045C11.6094 44.045 2.375 34.8106 2.375 23.42C2.375 12.0294 11.6094 2.79498 23 2.79498C34.3906 2.79498 43.625 12.0294 43.625 23.42ZM28.625 31.6962L21.125 24.1962V11.2325H24.875V22.6437L31.2762 29.045L28.625 31.6962Z" fill="#157C7B"/>
</svg>
