<svg width="500" height="373" viewBox="0 0 500 373" fill="none" xmlns="http://www.w3.org/2000/svg">
<path d="M500 327.4H0V327.65H500V327.4Z" fill="#EBEBEB"/>
<path d="M237 282.8H43.91C42.3974 282.797 40.9476 282.195 39.8789 281.124C38.8102 280.053 38.21 278.603 38.21 277.09V5.66C38.2232 4.15602 38.8292 2.71798 39.8965 1.65822C40.9637 0.598458 42.406 0.00257639 43.91 0H237C238.514 0 239.967 0.601588 241.038 1.67242C242.108 2.74325 242.71 4.19561 242.71 5.71V277.09C242.71 278.604 242.108 280.057 241.038 281.128C239.967 282.198 238.514 282.8 237 282.8ZM43.91 0.200001C42.4637 0.20265 41.0775 0.779065 40.0557 1.80273C39.0339 2.82639 38.46 4.21365 38.46 5.66V277.09C38.46 278.536 39.0339 279.924 40.0557 280.947C41.0775 281.971 42.4637 282.547 43.91 282.55H237C238.447 282.547 239.835 281.971 240.858 280.948C241.881 279.924 242.457 278.537 242.46 277.09V5.66C242.457 4.21273 241.881 2.82549 240.858 1.80212C239.835 0.77874 238.447 0.202644 237 0.200001H43.91Z" fill="#EBEBEB"/>
<path d="M453.31 282.8H260.21C258.696 282.797 257.246 282.195 256.175 281.125C255.105 280.054 254.503 278.604 254.5 277.09V5.66C254.516 4.15511 255.124 2.71708 256.193 1.65759C257.262 0.598109 258.705 0.00254829 260.21 0H453.31C454.812 0.0052045 456.252 0.602249 457.317 1.66173C458.382 2.72121 458.987 4.15775 459 5.66V277.09C459 278.601 458.401 280.05 457.335 281.121C456.268 282.191 454.821 282.795 453.31 282.8ZM260.21 0.200001C258.763 0.202644 257.375 0.77874 256.352 1.80212C255.329 2.82549 254.753 4.21273 254.75 5.66V277.09C254.753 278.537 255.329 279.924 256.352 280.948C257.375 281.971 258.763 282.547 260.21 282.55H453.31C454.757 282.547 456.145 281.971 457.168 280.948C458.191 279.924 458.767 278.537 458.77 277.09V5.66C458.767 4.21273 458.191 2.82549 457.168 1.80212C456.145 0.77874 454.757 0.202644 453.31 0.200001H260.21Z" fill="#EBEBEB"/>
<path d="M77.28 336.92H51.28V337.17H77.28V336.92Z" fill="#EBEBEB"/>
<path d="M190.18 334.21H145.15V334.46H190.18V334.21Z" fill="#EBEBEB"/>
<path d="M139.07 346.21H78.28V346.46H139.07V346.21Z" fill="#EBEBEB"/>
<path d="M448.72 344.53H429.49V344.78H448.72V344.53Z" fill="#EBEBEB"/>
<path d="M420.58 344.53H365.29V344.78H420.58V344.53Z" fill="#EBEBEB"/>
<path d="M331.52 340.31H257.05V340.56H331.52V340.31Z" fill="#EBEBEB"/>
<path d="M190.83 160.44L178.18 327.44H300.18L312.83 160.44H190.83ZM267.54 278.44C266.95 285.106 263.91 291.317 259.009 295.873C254.107 300.43 247.691 303.008 241 303.11C237.832 303.16 234.689 302.54 231.776 301.293C228.864 300.046 226.247 298.198 224.096 295.871C221.946 293.544 220.31 290.79 219.296 287.788C218.282 284.787 217.912 281.605 218.21 278.45L222.66 219.75C223.25 213.086 226.288 206.877 231.188 202.321C236.087 197.765 242.5 195.185 249.19 195.08C252.36 195.03 255.506 195.648 258.421 196.895C261.336 198.143 263.955 199.991 266.107 202.319C268.26 204.647 269.897 207.402 270.913 210.406C271.928 213.41 272.298 216.594 272 219.75L267.54 278.44Z" fill="#E6E6E6"/>
<path d="M338.88 327.4H161L162.03 316.44H339.9L338.88 327.4Z" fill="#E6E6E6"/>
<path d="M407.22 265.41H423C423.211 265.41 423.421 265.367 423.615 265.284C423.809 265.2 423.984 265.078 424.129 264.924C424.274 264.771 424.387 264.589 424.459 264.39C424.531 264.192 424.562 263.981 424.55 263.77L424.49 262.65C424.465 262.212 424.274 261.8 423.957 261.497C423.639 261.195 423.219 261.024 422.78 261.02H407C406.789 261.018 406.579 261.06 406.385 261.142C406.19 261.224 406.014 261.345 405.868 261.498C405.722 261.651 405.609 261.831 405.535 262.029C405.461 262.228 405.429 262.439 405.44 262.65L405.5 263.77C405.525 264.21 405.717 264.624 406.036 264.929C406.356 265.233 406.779 265.405 407.22 265.41Z" fill="#E0E0E0"/>
<path d="M380.89 265.41H396.64C396.852 265.411 397.062 265.37 397.256 265.287C397.451 265.204 397.627 265.081 397.772 264.927C397.918 264.774 398.03 264.591 398.102 264.392C398.174 264.193 398.204 263.981 398.19 263.77L398.13 262.65C398.105 262.212 397.914 261.8 397.597 261.497C397.279 261.195 396.859 261.024 396.42 261.02H380.67C380.459 261.018 380.249 261.06 380.055 261.142C379.86 261.224 379.684 261.345 379.538 261.498C379.392 261.651 379.279 261.831 379.205 262.029C379.131 262.228 379.099 262.439 379.11 262.65L379.17 263.77C379.198 264.209 379.39 264.622 379.709 264.926C380.028 265.23 380.45 265.403 380.89 265.41Z" fill="#E0E0E0"/>
<path d="M435.23 264.171H67.6C65.5338 264.149 63.5528 263.344 62.0568 261.919C60.5609 260.493 59.6614 258.553 59.54 256.49L48.47 35.6705C48.408 34.6793 48.5512 33.6859 48.8907 32.7525C49.2301 31.8192 49.7584 30.9659 50.4426 30.246C51.1268 29.5261 51.9522 28.9551 52.8672 28.5687C53.7821 28.1824 54.7669 27.9889 55.76 28.0005H423.39C425.455 28.0197 427.436 28.8224 428.932 30.2461C430.429 31.6699 431.328 33.6087 431.45 35.6705L442.52 256.49C442.582 257.482 442.439 258.476 442.099 259.41C441.76 260.344 441.232 261.198 440.548 261.918C439.864 262.639 439.038 263.211 438.124 263.598C437.209 263.986 436.224 264.181 435.23 264.171Z" fill="#E0E0E0"/>
<path d="M439.73 264.17H72.11C70.0366 264.156 68.0458 263.356 66.5402 261.93C65.0346 260.504 64.1267 258.56 64 256.49L53 35.6703C52.9382 34.6807 53.0808 33.6891 53.419 32.7571C53.7572 31.8251 54.2838 30.9727 54.9658 30.2532C55.6479 29.5336 56.4709 28.9622 57.3834 28.5746C58.296 28.187 59.2786 27.9915 60.27 28.0003H427.89C429.963 28.0116 431.953 28.8102 433.459 30.2343C434.965 31.6584 435.873 33.6016 436 35.6703L447 256.49C447.062 257.48 446.919 258.472 446.581 259.405C446.243 260.337 445.717 261.19 445.035 261.911C444.353 262.631 443.53 263.203 442.617 263.592C441.705 263.981 440.722 264.178 439.73 264.17Z" fill="#E6E6E6"/>
<path d="M74.26 248.76L64 43.4098C63.963 42.7887 64.054 42.1667 64.2674 41.5823C64.4808 40.9979 64.8121 40.4636 65.2406 40.0125C65.6692 39.5615 66.1858 39.2033 66.7585 38.9603C67.3313 38.7173 67.9479 38.5946 68.57 38.5998H420.69C421.985 38.6104 423.228 39.1134 424.166 40.0067C425.104 40.9 425.666 42.1166 425.74 43.4098L436 248.76C436.038 249.38 435.949 250.002 435.736 250.587C435.524 251.171 435.194 251.705 434.766 252.157C434.338 252.608 433.822 252.966 433.25 253.209C432.678 253.452 432.062 253.575 431.44 253.57H79.31C78.0155 253.557 76.7742 253.053 75.8369 252.16C74.8995 251.267 74.3359 250.052 74.26 248.76Z" fill="#F5F5F5"/>
<path d="M85.66 49.0996C85.6956 49.6464 85.6185 50.1946 85.4335 50.7103C85.2485 51.226 84.9595 51.6982 84.5845 52.0977C84.2094 52.4971 83.7563 52.8152 83.2533 53.0323C82.7502 53.2494 82.2079 53.3608 81.66 53.3596C80.5143 53.3465 79.4162 52.8997 78.5867 52.1092C77.7573 51.3188 77.2582 50.2434 77.19 49.0996C77.1558 48.5537 77.234 48.0065 77.4196 47.492C77.6053 46.9775 77.8945 46.5065 78.2694 46.1082C78.6443 45.7098 79.0969 45.3926 79.5992 45.1762C80.1016 44.9597 80.643 44.8485 81.19 44.8496C82.3355 44.8579 83.4349 45.3017 84.2651 46.091C85.0953 46.8804 85.594 47.956 85.66 49.0996Z" fill="white"/>
<path d="M104.93 49.0996C104.966 49.6464 104.888 50.1946 104.703 50.7103C104.518 51.226 104.229 51.6982 103.854 52.0977C103.479 52.4971 103.026 52.8152 102.523 53.0323C102.02 53.2494 101.478 53.3608 100.93 53.3596C99.7843 53.3465 98.6861 52.8997 97.8567 52.1092C97.0273 51.3188 96.5282 50.2434 96.46 49.0996C96.4258 48.5537 96.5039 48.0065 96.6896 47.492C96.8752 46.9775 97.1645 46.5065 97.5394 46.1082C97.9143 45.7098 98.3669 45.3926 98.8692 45.1762C99.3716 44.9597 99.913 44.8485 100.46 44.8496C101.605 44.8579 102.705 45.3017 103.535 46.091C104.365 46.8804 104.864 47.956 104.93 49.0996Z" fill="white"/>
<path d="M124.21 49.0996C124.246 49.6464 124.169 50.1946 123.984 50.7103C123.799 51.226 123.51 51.6982 123.134 52.0977C122.759 52.4971 122.306 52.8152 121.803 53.0323C121.3 53.2494 120.758 53.3608 120.21 53.3596C119.065 53.3487 117.966 52.9023 117.138 52.1112C116.31 51.32 115.813 50.2433 115.75 49.0996C115.716 48.5537 115.794 48.0065 115.98 47.492C116.165 46.9775 116.454 46.5065 116.829 46.1082C117.204 45.7098 117.657 45.3926 118.159 45.1762C118.662 44.9597 119.203 44.8485 119.75 44.8496C120.893 44.8628 121.989 45.3085 122.816 46.0971C123.644 46.8857 124.142 47.9585 124.21 49.0996Z" fill="white"/>
<g opacity="0.6">
<path d="M110.88 253.57H161.63L208.03 38.5996H157.28L110.88 253.57Z" fill="white"/>
<path d="M329.28 253.57H342.13L388.53 38.5996H375.68L329.28 253.57Z" fill="white"/>
<path d="M172.91 253.57H244.91L291.31 38.5996H219.31L172.91 253.57Z" fill="white"/>
</g>
<path d="M250 372.56C357.082 372.56 443.89 367.492 443.89 361.24C443.89 354.988 357.082 349.92 250 349.92C142.917 349.92 56.11 354.988 56.11 361.24C56.11 367.492 142.917 372.56 250 372.56Z" fill="#F5F5F5"/>
<path d="M360.6 208.05H360.24C333.6 205.87 315.24 183.05 314.5 182.13C313.818 181.197 313.524 180.036 313.678 178.892C313.833 177.747 314.426 176.706 315.331 175.988C316.236 175.27 317.384 174.931 318.535 175.041C319.685 175.152 320.747 175.703 321.5 176.58C321.71 176.85 337.4 196.19 359.13 198.95C366.13 191.95 372.13 173.47 371.46 167.88C371.46 167.82 371.46 167.77 371.46 167.72C371.32 165.92 370.98 159.72 372.75 156.07C373.333 155.131 374.243 154.442 375.304 154.135C376.366 153.828 377.503 153.925 378.497 154.407C379.491 154.889 380.272 155.722 380.688 156.746C381.104 157.769 381.126 158.911 380.75 159.95C380.31 160.87 380.1 164.18 380.31 166.95C381.31 176.15 373.31 199.37 363.31 207.14C362.531 207.731 361.579 208.051 360.6 208.05Z" fill="#263238"/>
<path d="M148.82 183.82C139.618 183.708 130.541 181.668 122.177 177.83C113.812 173.992 106.346 168.443 100.26 161.54C99.5727 160.774 99.1713 159.794 99.1239 158.766C99.0765 157.738 99.3861 156.726 100 155.9C107.22 146.19 120 123.26 122 115.79C121.051 113.988 119.617 112.489 117.86 111.46C117.157 111.132 116.552 110.627 116.105 109.994C115.658 109.361 115.384 108.622 115.31 107.85L114.59 100.53C114.52 99.376 114.9 98.24 115.65 97.3604C116.4 96.4807 117.461 95.9257 118.612 95.8118C119.762 95.6979 120.911 96.0341 121.819 96.7497C122.727 97.4653 123.322 98.5047 123.48 99.6498L123.98 104.74C126.936 107.01 129.277 109.984 130.79 113.39C131.09 114.103 131.2 114.881 131.11 115.65C130.19 123.58 117.32 146.55 109.4 158.16C127.89 176.59 149.99 174.91 150.96 174.82C152.125 174.739 153.276 175.118 154.165 175.874C155.055 176.631 155.613 177.706 155.72 178.869C155.827 180.032 155.475 181.191 154.739 182.097C154.002 183.004 152.94 183.586 151.78 183.72C151.52 183.74 150.49 183.82 148.82 183.82Z" fill="#263238"/>
<path d="M292.87 361.09H280.87C280.181 361.09 279.502 360.931 278.885 360.626C278.268 360.32 277.73 359.876 277.312 359.328C276.895 358.78 276.61 358.143 276.48 357.467C276.349 356.791 276.377 356.094 276.56 355.43C279.69 344.19 281.23 335.04 282.38 320.72C278.14 300.72 274.15 282.51 274.11 282.33C273.893 281.187 274.131 280.004 274.773 279.033C275.414 278.062 276.409 277.379 277.546 277.131C278.683 276.882 279.872 277.086 280.861 277.701C281.85 278.315 282.56 279.291 282.84 280.42C282.84 280.6 286.96 299.28 291.25 319.5C291.342 319.92 291.369 320.352 291.33 320.78C290.33 333.64 289.02 342.53 286.66 352.16H292.84C293.988 352.214 295.07 352.709 295.863 353.54C296.656 354.371 297.099 355.476 297.099 356.625C297.099 357.774 296.656 358.879 295.863 359.71C295.07 360.542 293.988 361.036 292.84 361.09H292.87Z" fill="#263238"/>
<path d="M200.32 361.089H193.56C192.921 361.091 192.289 360.956 191.707 360.692C191.126 360.428 190.607 360.042 190.188 359.56C189.769 359.078 189.458 358.512 189.277 357.899C189.096 357.286 189.05 356.642 189.14 356.009C190.29 347.809 196.14 332.879 202.44 317.869C204.67 298.069 206.49 281.069 206.51 280.869C206.559 280.273 206.728 279.693 207.006 279.163C207.283 278.634 207.664 278.165 208.126 277.785C208.588 277.406 209.122 277.122 209.695 276.953C210.269 276.783 210.871 276.73 211.465 276.797C212.059 276.864 212.634 277.049 213.155 277.342C213.677 277.635 214.134 278.03 214.5 278.503C214.866 278.976 215.133 279.518 215.286 280.096C215.439 280.674 215.474 281.277 215.39 281.869C215.39 282.039 213.51 299.429 211.24 319.519C211.194 319.939 211.086 320.35 210.92 320.739C206.49 331.369 201.43 343.889 199.12 352.179H200.32C200.924 352.151 201.528 352.245 202.094 352.456C202.661 352.668 203.179 352.992 203.616 353.41C204.054 353.827 204.403 354.329 204.641 354.885C204.879 355.441 205.001 356.039 205.001 356.644C205.001 357.249 204.879 357.848 204.641 358.404C204.403 358.96 204.054 359.461 203.616 359.879C203.179 360.296 202.661 360.621 202.094 360.832C201.528 361.044 200.924 361.138 200.32 361.109V361.089Z" fill="#263238"/>
<path d="M204.21 56L152.15 108.07C149.53 165.78 149.74 226.4 152.15 289.25H324.31C320.9 208.15 320.58 130.08 324.31 56H204.21Z" fill="white"/>
<path d="M324.31 290.13H152.15C151.918 290.13 151.695 290.041 151.527 289.881C151.36 289.721 151.26 289.502 151.25 289.27C148.76 224 148.76 163 151.25 108C151.264 107.777 151.36 107.566 151.52 107.41L203.58 55.3401C203.663 55.2575 203.761 55.192 203.869 55.1474C203.977 55.1028 204.093 55.0799 204.21 55.0801H324.31C324.432 55.0804 324.552 55.1054 324.664 55.1535C324.775 55.2016 324.876 55.2719 324.96 55.3601C325.044 55.4474 325.108 55.5512 325.15 55.6648C325.191 55.7784 325.208 55.8994 325.2 56.0201C321.61 127.36 321.61 203.63 325.2 289.19C325.204 289.31 325.184 289.429 325.141 289.541C325.098 289.652 325.033 289.754 324.95 289.84C324.87 289.931 324.771 290.003 324.661 290.053C324.551 290.103 324.431 290.13 324.31 290.13ZM153 288.34H323.38C319.84 203.48 319.83 127.75 323.38 56.8701H204.58L153 108.43C150.55 163.07 150.55 223.59 153 288.34Z" fill="#263238"/>
<path d="M202.85 232.4L204.73 232.24C204.816 232.907 205.059 233.545 205.44 234.1C205.851 234.625 206.397 235.029 207.02 235.27C207.758 235.577 208.551 235.73 209.35 235.72C210.032 235.734 210.711 235.619 211.35 235.38C211.851 235.203 212.287 234.879 212.6 234.45C212.862 234.072 212.992 233.619 212.97 233.16C212.959 232.705 212.793 232.268 212.5 231.92C212.122 231.502 211.639 231.194 211.1 231.03C210.204 230.734 209.293 230.487 208.37 230.29C207.356 230.083 206.367 229.768 205.42 229.35C204.75 229.029 204.172 228.544 203.74 227.94C203.359 227.385 203.144 226.733 203.12 226.06C203.076 225.28 203.282 224.506 203.709 223.851C204.135 223.197 204.759 222.695 205.49 222.42C206.358 222.06 207.291 221.883 208.23 221.9C209.256 221.881 210.275 222.064 211.23 222.44C212.035 222.767 212.729 223.319 213.23 224.03C213.726 224.731 214.023 225.553 214.09 226.41L212.18 226.56C212.093 225.714 211.681 224.936 211.03 224.39C210.25 223.856 209.313 223.599 208.37 223.66C207.449 223.575 206.526 223.811 205.76 224.33C205.513 224.515 205.316 224.757 205.185 225.036C205.054 225.315 204.994 225.622 205.01 225.93C205.016 226.187 205.077 226.439 205.189 226.671C205.301 226.902 205.462 227.106 205.66 227.27C206.599 227.826 207.639 228.19 208.72 228.34C209.877 228.574 211.011 228.909 212.11 229.34C212.9 229.665 213.59 230.193 214.11 230.87C214.559 231.499 214.813 232.247 214.84 233.02C214.878 233.817 214.676 234.608 214.26 235.29C213.805 236.023 213.139 236.602 212.35 236.95C211.445 237.355 210.462 237.556 209.47 237.54C208.289 237.571 207.114 237.37 206.01 236.95C205.102 236.574 204.319 235.95 203.75 235.15C203.206 234.332 202.895 233.381 202.85 232.4Z" fill="#263238"/>
<path d="M224.91 233.73L226.84 233.97C226.649 234.995 226.095 235.918 225.28 236.57C224.391 237.224 223.303 237.552 222.2 237.5C221.487 237.53 220.774 237.415 220.107 237.16C219.44 236.906 218.832 236.518 218.32 236.02C217.277 234.895 216.705 233.413 216.72 231.88C216.541 230.349 216.976 228.81 217.93 227.6C218.382 227.092 218.942 226.692 219.568 226.428C220.194 226.163 220.871 226.041 221.55 226.07C222.229 226.052 222.905 226.176 223.533 226.434C224.162 226.692 224.73 227.079 225.2 227.57C226.243 228.718 226.811 230.219 226.79 231.77C226.79 231.88 226.79 232.04 226.79 232.26H218.63C218.694 233.28 219.107 234.248 219.8 235C220.099 235.317 220.46 235.57 220.861 235.742C221.262 235.914 221.694 236.002 222.13 236C222.748 236.02 223.355 235.83 223.85 235.46C224.376 235.008 224.746 234.403 224.91 233.73ZM218.68 230.73H224.79C224.724 229.978 224.447 229.26 223.99 228.66C223.703 228.318 223.343 228.044 222.936 227.859C222.529 227.674 222.087 227.582 221.64 227.59C221.249 227.578 220.859 227.647 220.496 227.793C220.133 227.94 219.804 228.16 219.53 228.44C218.957 229.066 218.652 229.891 218.68 230.74V230.73Z" fill="#263238"/>
<path d="M229.3 237.249L228.78 226.319H230.44L230.52 227.979C230.769 227.389 231.149 226.862 231.63 226.439C231.972 226.196 232.381 226.067 232.8 226.069C233.486 226.087 234.155 226.295 234.73 226.669L234.18 228.389C233.764 228.136 233.287 227.998 232.8 227.989C232.413 227.983 232.035 228.11 231.73 228.349C231.409 228.6 231.183 228.953 231.09 229.349C230.906 230.054 230.835 230.783 230.88 231.509L231.15 237.229L229.3 237.249Z" fill="#263238"/>
<path d="M239.38 237.249L234.7 226.319H236.7L239.36 232.869C239.65 233.579 239.92 234.309 240.17 235.069C240.31 234.499 240.5 233.799 240.76 232.989L242.87 226.319H244.78L241.16 237.249H239.38Z" fill="#263238"/>
<path d="M246.28 224.29L246.17 222.16H248L248.1 224.29H246.28ZM246.9 237.29L246.37 226.36H248.23L248.75 237.29H246.9Z" fill="#263238"/>
<path d="M258.51 233.25L260.35 233.49C260.274 234.613 259.777 235.666 258.96 236.44C258.134 237.166 257.059 237.546 255.96 237.5C255.278 237.523 254.599 237.405 253.965 237.152C253.332 236.899 252.758 236.517 252.28 236.03C251.25 234.875 250.69 233.377 250.71 231.83C250.638 230.777 250.787 229.721 251.15 228.73C251.461 227.885 252.059 227.177 252.84 226.73C253.625 226.28 254.516 226.049 255.42 226.06C256.493 226.01 257.552 226.327 258.42 226.96C259.228 227.602 259.784 228.508 259.99 229.52L258.21 229.8C258.053 229.158 257.704 228.579 257.21 228.14C256.755 227.772 256.185 227.578 255.6 227.59C255.176 227.572 254.754 227.653 254.367 227.826C253.98 228 253.638 228.261 253.37 228.59C252.752 229.527 252.496 230.658 252.65 231.77C252.617 232.918 252.969 234.045 253.65 234.97C253.931 235.291 254.279 235.547 254.669 235.72C255.06 235.893 255.483 235.978 255.91 235.97C256.571 235.989 257.214 235.749 257.7 235.3C258.207 234.736 258.495 234.008 258.51 233.25Z" fill="#263238"/>
<path d="M269.43 233.73L271.36 233.97C271.169 234.995 270.615 235.918 269.8 236.57C268.911 237.224 267.823 237.552 266.72 237.5C266.007 237.53 265.294 237.415 264.627 237.161C263.96 236.906 263.352 236.518 262.84 236.02C261.801 234.892 261.23 233.413 261.24 231.88C261.15 231.121 261.212 230.352 261.422 229.618C261.631 228.883 261.984 228.197 262.46 227.6C262.91 227.092 263.468 226.692 264.092 226.427C264.717 226.162 265.392 226.04 266.07 226.07C266.749 226.052 267.425 226.176 268.053 226.434C268.682 226.693 269.25 227.079 269.72 227.57C270.763 228.718 271.331 230.219 271.31 231.77C271.31 231.88 271.31 232.04 271.31 232.26H263.15C263.204 233.285 263.61 234.26 264.3 235.02C264.601 235.338 264.964 235.59 265.366 235.762C265.769 235.934 266.202 236.022 266.64 236.02C267.255 236.041 267.859 235.85 268.35 235.48C268.887 235.026 269.265 234.413 269.43 233.73ZM263.2 230.73H269.31C269.251 229.977 268.973 229.257 268.51 228.66C268.223 228.318 267.863 228.044 267.456 227.859C267.049 227.674 266.607 227.582 266.16 227.59C265.77 227.577 265.382 227.646 265.02 227.792C264.658 227.938 264.331 228.159 264.06 228.44C263.481 229.063 263.172 229.89 263.2 230.74V230.73Z" fill="#263238"/>
<path d="M193.52 258.34L193.44 256.73C193.096 257.315 192.6 257.797 192.005 258.124C191.41 258.451 190.739 258.612 190.06 258.59C189.431 258.591 188.809 258.465 188.23 258.22C187.73 258.021 187.287 257.702 186.94 257.29C186.636 256.879 186.421 256.409 186.31 255.91C186.188 255.341 186.121 254.762 186.11 254.18L185.78 247.41H187.64L187.93 253.47C187.936 254.142 188.006 254.812 188.14 255.47C188.262 255.934 188.541 256.34 188.93 256.62C189.35 256.9 189.846 257.043 190.35 257.03C190.897 257.035 191.434 256.886 191.9 256.6C192.36 256.344 192.715 255.933 192.9 255.44C193.095 254.745 193.163 254.02 193.1 253.3L192.82 247.45H194.67L195.19 258.38L193.52 258.34Z" fill="#263238"/>
<path d="M198.08 258.34L197.55 247.41H199.22L199.3 248.96C199.647 248.379 200.147 247.905 200.744 247.588C201.342 247.27 202.015 247.122 202.69 247.16C203.317 247.155 203.939 247.274 204.52 247.51C205.027 247.701 205.473 248.026 205.81 248.45C206.116 248.858 206.334 249.324 206.45 249.82C206.568 250.413 206.631 251.016 206.64 251.62L206.96 258.34H205.11L204.79 251.69C204.79 251.113 204.688 250.541 204.49 250C204.328 249.618 204.043 249.301 203.68 249.1C203.285 248.871 202.836 248.754 202.38 248.76C201.641 248.748 200.925 249.02 200.38 249.52C200.064 249.917 199.835 250.376 199.71 250.867C199.584 251.358 199.563 251.87 199.65 252.37L199.94 258.37L198.08 258.34Z" fill="#263238"/>
<path d="M216.88 256.999C216.318 257.527 215.663 257.947 214.95 258.239C214.311 258.481 213.633 258.603 212.95 258.599C211.934 258.658 210.932 258.345 210.13 257.719C209.804 257.44 209.54 257.096 209.356 256.708C209.171 256.321 209.071 255.898 209.06 255.469C209.025 254.962 209.125 254.455 209.35 253.999C209.564 253.576 209.876 253.209 210.26 252.929C210.659 252.662 211.098 252.46 211.56 252.329C212.1 252.2 212.648 252.106 213.2 252.049C214.309 251.949 215.405 251.735 216.47 251.409C216.47 251.159 216.47 250.999 216.47 250.929C216.483 250.636 216.436 250.343 216.333 250.068C216.23 249.793 216.073 249.542 215.87 249.329C215.269 248.949 214.579 248.733 213.868 248.703C213.157 248.673 212.451 248.83 211.82 249.159C211.358 249.583 211.06 250.157 210.98 250.779L209.15 250.539C209.237 249.863 209.487 249.217 209.88 248.659C210.285 248.141 210.835 247.755 211.46 247.549C212.252 247.283 213.084 247.154 213.92 247.169C214.697 247.145 215.472 247.256 216.21 247.499C216.703 247.631 217.15 247.895 217.503 248.264C217.856 248.632 218.101 249.091 218.21 249.589C218.309 250.154 218.366 250.726 218.38 251.299L218.5 253.769C218.523 254.864 218.613 255.956 218.77 257.039C218.88 257.502 219.062 257.944 219.31 258.349H217.37C217.123 257.934 216.957 257.476 216.88 256.999ZM216.52 252.859C215.552 253.214 214.545 253.449 213.52 253.559C212.974 253.621 212.437 253.745 211.92 253.929C211.628 254.054 211.383 254.267 211.22 254.539C211.06 254.804 210.983 255.111 211 255.419C211.011 255.657 211.071 255.889 211.178 256.101C211.285 256.313 211.436 256.5 211.62 256.649C212.099 257.009 212.692 257.187 213.29 257.149C213.947 257.162 214.596 256.999 215.17 256.679C215.689 256.391 216.099 255.942 216.34 255.399C216.533 254.8 216.605 254.167 216.55 253.539L216.52 252.859Z" fill="#263238"/>
<path d="M224.57 258.34L219.89 247.41H221.89L224.5 254C224.79 254.71 225.06 255.45 225.31 256.21C225.45 255.63 225.64 254.94 225.9 254.13L228.01 247.46H229.91L226.3 258.39L224.57 258.34Z" fill="#263238"/>
<path d="M239.15 256.999C238.588 257.527 237.933 257.947 237.22 258.239C236.581 258.481 235.903 258.603 235.22 258.599C234.207 258.657 233.208 258.345 232.41 257.719C232.079 257.444 231.811 257.1 231.625 256.712C231.439 256.324 231.338 255.9 231.33 255.469C231.295 254.962 231.395 254.455 231.62 253.999C231.834 253.576 232.146 253.209 232.53 252.929C232.931 252.66 233.374 252.458 233.84 252.329C234.376 252.199 234.921 252.105 235.47 252.049C236.579 251.949 237.675 251.735 238.74 251.409C238.74 251.159 238.74 250.999 238.74 250.929C238.755 250.636 238.71 250.342 238.607 250.067C238.503 249.792 238.345 249.541 238.14 249.329C237.539 248.949 236.849 248.733 236.138 248.703C235.427 248.673 234.721 248.83 234.09 249.159C233.628 249.583 233.33 250.157 233.25 250.779L231.42 250.539C231.507 249.863 231.757 249.217 232.15 248.659C232.555 248.141 233.105 247.755 233.73 247.549C234.522 247.283 235.354 247.154 236.19 247.169C236.967 247.145 237.742 247.256 238.48 247.499C238.973 247.631 239.42 247.895 239.773 248.264C240.126 248.632 240.371 249.091 240.48 249.589C240.584 250.154 240.641 250.726 240.65 251.299L240.77 253.769C240.779 254.85 240.856 255.929 241 256.999C241.101 257.463 241.281 257.906 241.53 258.309H239.59C239.368 257.902 239.22 257.458 239.15 256.999ZM238.79 252.859C237.822 253.214 236.815 253.449 235.79 253.559C235.244 253.621 234.707 253.745 234.19 253.929C233.898 254.054 233.653 254.267 233.49 254.539C233.33 254.804 233.253 255.111 233.27 255.419C233.281 255.657 233.341 255.889 233.448 256.101C233.555 256.313 233.706 256.5 233.89 256.649C234.369 257.009 234.962 257.187 235.56 257.149C236.217 257.162 236.866 256.999 237.44 256.679C237.959 256.391 238.369 255.942 238.61 255.399C238.813 254.802 238.885 254.167 238.82 253.539L238.79 252.859Z" fill="#263238"/>
<path d="M243.19 245.38L243.09 243.25H244.94L245.05 245.38H243.19ZM243.81 258.38L243.29 247.45H245.14L245.67 258.38H243.81Z" fill="#263238"/>
<path d="M248.45 258.34L247.72 243.25H249.58L250.3 258.34H248.45Z" fill="#263238"/>
<path d="M260.24 257C259.681 257.527 259.03 257.948 258.32 258.24C257.681 258.481 257.003 258.603 256.32 258.6C255.308 258.657 254.309 258.345 253.51 257.72C253.184 257.441 252.92 257.097 252.736 256.709C252.551 256.321 252.451 255.899 252.44 255.47C252.407 254.98 252.499 254.489 252.709 254.044C252.919 253.599 253.24 253.216 253.64 252.93C254.038 252.661 254.477 252.458 254.94 252.33C255.48 252.2 256.028 252.107 256.58 252.05C257.689 251.949 258.785 251.734 259.85 251.41C259.85 251.16 259.85 251 259.85 250.93C259.863 250.637 259.816 250.344 259.713 250.069C259.61 249.794 259.453 249.543 259.25 249.33C258.634 248.873 257.876 248.649 257.11 248.7C256.441 248.649 255.772 248.81 255.2 249.16C254.737 249.585 254.437 250.158 254.35 250.78L252.53 250.54C252.618 249.865 252.865 249.221 253.25 248.66C253.661 248.144 254.214 247.758 254.84 247.55C255.632 247.284 256.464 247.155 257.3 247.17C258.077 247.146 258.852 247.258 259.59 247.5C260.083 247.631 260.531 247.896 260.883 248.264C261.236 248.633 261.481 249.092 261.59 249.59C261.689 250.155 261.746 250.727 261.76 251.3L261.88 253.77C261.903 254.865 261.993 255.957 262.15 257.04C262.256 257.502 262.435 257.944 262.68 258.35H260.75C260.5 257.935 260.327 257.477 260.24 257ZM259.89 252.86C258.922 253.213 257.915 253.448 256.89 253.56C256.344 253.622 255.807 253.746 255.29 253.93C254.996 254.051 254.75 254.266 254.59 254.54C254.43 254.805 254.353 255.111 254.37 255.42C254.379 255.658 254.439 255.891 254.546 256.103C254.653 256.315 254.804 256.502 254.99 256.65C255.469 257.01 256.062 257.187 256.66 257.15C257.317 257.162 257.966 257 258.54 256.68C259.058 256.394 259.467 255.944 259.7 255.4C259.903 254.802 259.975 254.168 259.91 253.54L259.89 252.86Z" fill="#263238"/>
<path d="M266.61 258.34H264.89L264.17 243.25H266L266.26 248.63C266.588 248.164 267.027 247.786 267.536 247.53C268.045 247.273 268.61 247.146 269.18 247.16C269.846 247.154 270.504 247.294 271.11 247.57C271.706 247.823 272.234 248.214 272.65 248.71C273.081 249.239 273.419 249.838 273.65 250.48C273.907 251.197 274.052 251.949 274.08 252.71C274.264 254.255 273.841 255.811 272.9 257.05C272.509 257.538 272.013 257.93 271.448 258.197C270.883 258.463 270.265 258.598 269.64 258.59C269.026 258.601 268.419 258.458 267.875 258.175C267.33 257.893 266.864 257.478 266.52 256.97L266.61 258.34ZM266.32 252.79C266.306 253.777 266.536 254.753 266.99 255.63C267.235 256.062 267.589 256.422 268.018 256.673C268.446 256.924 268.933 257.058 269.43 257.06C269.83 257.059 270.225 256.963 270.581 256.781C270.937 256.598 271.245 256.334 271.48 256.01C272.095 255.082 272.357 253.965 272.22 252.86C272.244 251.725 271.892 250.614 271.22 249.7C270.964 249.388 270.642 249.136 270.277 248.963C269.912 248.79 269.514 248.7 269.11 248.7C268.709 248.703 268.314 248.801 267.958 248.985C267.602 249.169 267.294 249.435 267.06 249.76C266.462 250.65 266.199 251.724 266.32 252.79Z" fill="#263238"/>
<path d="M276.59 258.34L275.86 243.25H277.72L278.44 258.34H276.59Z" fill="#263238"/>
<path d="M288.63 254.819L290.56 255.059C290.364 256.083 289.811 257.004 289 257.659C288.11 258.312 287.023 258.64 285.92 258.589C285.207 258.618 284.495 258.501 283.828 258.247C283.162 257.992 282.553 257.605 282.04 257.109C280.997 255.984 280.425 254.503 280.44 252.969C280.349 252.21 280.41 251.44 280.617 250.704C280.825 249.967 281.176 249.279 281.65 248.679C282.105 248.176 282.665 247.778 283.291 247.516C283.916 247.253 284.592 247.131 285.27 247.159C285.948 247.142 286.623 247.265 287.251 247.522C287.879 247.778 288.448 248.162 288.92 248.649C289.96 249.799 290.527 251.299 290.51 252.849C290.51 252.959 290.51 253.129 290.51 253.349H282.35C282.404 254.374 282.81 255.349 283.5 256.109C283.803 256.418 284.166 256.662 284.567 256.825C284.967 256.989 285.397 257.068 285.83 257.059C286.446 257.077 287.051 256.891 287.55 256.529C288.074 256.081 288.451 255.485 288.63 254.819ZM282.4 251.819H288.51C288.444 251.068 288.167 250.35 287.71 249.749C287.423 249.407 287.063 249.134 286.656 248.948C286.249 248.763 285.807 248.671 285.36 248.679C284.968 248.669 284.578 248.739 284.215 248.887C283.851 249.036 283.523 249.257 283.25 249.539C282.682 250.16 282.377 250.978 282.4 251.819Z" fill="#263238"/>
<path d="M293.44 264.46H274.66C274.482 264.46 274.312 264.389 274.186 264.264C274.061 264.138 273.99 263.968 273.99 263.79C273.99 263.702 274.007 263.616 274.041 263.535C274.075 263.454 274.124 263.381 274.187 263.32C274.249 263.258 274.323 263.21 274.404 263.177C274.486 263.145 274.572 263.129 274.66 263.13H293.44C293.528 263.129 293.614 263.145 293.696 263.177C293.777 263.21 293.851 263.258 293.913 263.32C293.976 263.381 294.025 263.454 294.059 263.535C294.093 263.616 294.11 263.702 294.11 263.79C294.11 263.878 294.093 263.965 294.059 264.046C294.025 264.128 293.976 264.202 293.914 264.264C293.852 264.326 293.778 264.375 293.696 264.409C293.615 264.443 293.528 264.46 293.44 264.46Z" fill="#157C7B"/>
<path d="M266.88 264.46H183C182.822 264.46 182.652 264.389 182.526 264.264C182.401 264.138 182.33 263.968 182.33 263.79C182.33 263.702 182.347 263.616 182.381 263.535C182.415 263.454 182.464 263.381 182.527 263.32C182.589 263.258 182.663 263.21 182.744 263.177C182.826 263.145 182.913 263.129 183 263.13H266.86C266.948 263.129 267.034 263.145 267.116 263.177C267.197 263.21 267.271 263.258 267.333 263.32C267.396 263.381 267.445 263.454 267.479 263.535C267.513 263.616 267.53 263.702 267.53 263.79C267.53 263.964 267.462 264.132 267.341 264.257C267.22 264.382 267.054 264.455 266.88 264.46Z" fill="#157C7B"/>
<path d="M214.28 164.189C214.08 159.829 211.61 156.389 208.75 156.489C205.89 156.589 203.75 160.199 203.93 164.559C204.11 168.919 206.6 172.359 209.46 172.249C212.32 172.139 214.48 168.539 214.28 164.189Z" fill="#157C7B"/>
<path d="M274.65 162.82C274.45 158.47 271.98 155.03 269.12 155.13C266.26 155.23 264.12 158.84 264.3 163.2C264.48 167.56 266.98 171 269.83 170.89C272.68 170.78 274.85 167.18 274.65 162.82Z" fill="#157C7B"/>
<path d="M229.35 181.999C233.964 180.276 238.878 179.503 243.798 179.726C248.718 179.949 253.542 181.165 257.98 183.299C258.127 183.381 258.257 183.49 258.361 183.622C258.466 183.754 258.543 183.905 258.589 184.067C258.634 184.229 258.647 184.398 258.627 184.565C258.606 184.732 258.553 184.893 258.47 185.039C258.3 185.333 258.022 185.549 257.695 185.641C257.368 185.732 257.018 185.692 256.72 185.529C256.57 185.449 242.32 177.769 225.31 186.529C225.007 186.683 224.655 186.712 224.331 186.611C224.006 186.511 223.733 186.287 223.57 185.989C223.492 185.84 223.445 185.678 223.43 185.51C223.416 185.343 223.435 185.174 223.486 185.014C223.537 184.855 223.62 184.706 223.728 184.578C223.837 184.45 223.97 184.345 224.12 184.269C225.81 183.394 227.557 182.636 229.35 181.999Z" fill="#157C7B"/>
<path d="M205.64 123.34C206.084 123.352 206.517 123.476 206.9 123.7C207.485 124.046 207.909 124.609 208.081 125.266C208.254 125.923 208.16 126.621 207.82 127.21C205.83 130.756 203.014 133.771 199.61 135.997C196.207 138.224 192.317 139.597 188.27 140C187.59 140.027 186.926 139.785 186.422 139.327C185.919 138.868 185.616 138.23 185.58 137.55C185.565 137.215 185.617 136.88 185.731 136.565C185.846 136.25 186.022 135.961 186.248 135.714C186.475 135.467 186.748 135.267 187.052 135.125C187.356 134.984 187.685 134.904 188.02 134.89C188.41 134.89 197.64 134.31 203.38 124.62C203.605 124.221 203.934 123.892 204.332 123.666C204.731 123.441 205.183 123.328 205.64 123.34Z" fill="#157C7B"/>
<path d="M266.05 121.87C266.468 121.787 266.899 121.81 267.306 121.936C267.713 122.062 268.082 122.286 268.38 122.59C276.38 130.59 285.52 128.98 285.9 128.91C286.562 128.791 287.244 128.932 287.803 129.305C288.362 129.678 288.755 130.253 288.9 130.91C288.967 131.238 288.968 131.577 288.904 131.906C288.839 132.234 288.711 132.547 288.525 132.826C288.339 133.105 288.099 133.344 287.821 133.53C287.542 133.716 287.229 133.845 286.9 133.91C286.4 134 274.76 136.22 264.69 126.16C264.361 125.834 264.128 125.425 264.014 124.977C263.901 124.528 263.912 124.057 264.047 123.614C264.182 123.172 264.435 122.774 264.779 122.465C265.123 122.156 265.546 121.947 266 121.86L266.05 121.87Z" fill="#157C7B"/>
<path opacity="0.2" d="M321.72 149.859L314.41 150.539C313.145 150.657 311.881 150.31 310.853 149.563C309.826 148.815 309.107 147.719 308.83 146.479L298.7 101.099C298.408 99.7816 298.637 98.4019 299.34 97.2496C300.043 96.0974 301.165 95.2622 302.47 94.9193L322.06 89.7793L321.72 149.859Z" fill="black"/>
<path opacity="0.2" d="M209 112.689C203.91 98.7995 198.82 76.5695 204.19 55.9795L152.13 108.049C166.86 112.999 190.32 115.109 209 112.689Z" fill="black"/>
<path d="M204.21 108.049C198.5 91.1895 200.83 68.2695 204.21 55.9795L152.15 108.049C167.91 110.919 185.52 110.459 204.21 108.049Z" fill="white"/>
<path d="M176 110.92C167.956 110.98 159.923 110.31 152 108.92C151.839 108.894 151.689 108.823 151.566 108.716C151.443 108.609 151.352 108.47 151.303 108.315C151.254 108.159 151.25 107.993 151.29 107.835C151.33 107.677 151.413 107.534 151.53 107.42L203.59 55.3501C203.729 55.2089 203.911 55.118 204.107 55.0918C204.303 55.0656 204.502 55.1056 204.673 55.2054C204.844 55.3052 204.977 55.4592 205.051 55.643C205.124 55.8267 205.135 56.0298 205.08 56.2201C201.94 67.6601 199.33 90.8201 205.08 107.76C205.12 107.886 205.132 108.019 205.117 108.15C205.101 108.281 205.058 108.407 204.99 108.52C204.921 108.632 204.828 108.728 204.717 108.799C204.606 108.87 204.481 108.915 204.35 108.93C194.952 110.199 185.483 110.863 176 110.92ZM154 107.46C167.84 109.75 183.91 109.7 203 107.3C198.29 92.3601 199.36 72.5901 202.52 58.9001L154 107.46Z" fill="#263238"/>
<path d="M383.1 184.109C382.771 184.109 382.452 184 382.191 183.799C381.931 183.599 381.744 183.317 381.66 182.999L363.32 113.119C363.219 112.736 363.275 112.328 363.475 111.986C363.674 111.644 364.002 111.395 364.385 111.294C364.768 111.193 365.176 111.249 365.518 111.449C365.86 111.649 366.109 111.976 366.21 112.359L384.55 182.239C384.6 182.429 384.611 182.627 384.584 182.821C384.557 183.015 384.492 183.202 384.393 183.371C384.294 183.541 384.162 183.688 384.005 183.806C383.848 183.924 383.67 184.01 383.48 184.059C383.357 184.096 383.229 184.113 383.1 184.109Z" fill="#263238"/>
<path d="M417.26 83.7285L416.29 83.9785L417.667 89.3232L418.637 89.0732L417.26 83.7285Z" fill="#157C7B"/>
<path d="M414.11 76.0897L410.26 61.4197C409.736 59.4336 408.446 57.7362 406.673 56.6996C404.9 55.663 402.788 55.3717 400.8 55.8897L390.73 58.5297L390.48 57.5297L400.55 54.8797C402.792 54.2976 405.174 54.6274 407.173 55.7968C409.173 56.9663 410.628 58.8801 411.22 61.1197L415.08 75.7997L414.11 76.0897Z" fill="#157C7B"/>
<path d="M401.443 58.3351L306.099 83.348C303.3 84.0824 301.626 86.947 302.36 89.7462L314.427 135.74C315.161 138.539 318.026 140.213 320.825 139.479L416.168 114.466C418.968 113.731 420.642 110.867 419.907 108.067L407.841 62.0739C407.107 59.2747 404.242 57.6007 401.443 58.3351Z" fill="#157C7B"/>
<path d="M396.694 111.913L336.54 127.694C333.741 128.428 332.067 131.293 332.801 134.092L336.572 148.466C337.306 151.265 340.171 152.939 342.97 152.204L403.125 136.423C405.924 135.689 407.598 132.824 406.863 130.025L403.093 115.651C402.358 112.852 399.494 111.178 396.694 111.913Z" fill="#157C7B"/>
<path d="M342.15 132.94L350.38 130.8L350.93 132.92L345.78 134.26L346.19 135.84L351 134.6L351.53 136.6L346.75 137.85L347.26 139.8L352.56 138.43L353.14 140.68L344.77 142.86L342.15 132.94Z" fill="white"/>
<path d="M354.81 140.26L352.22 130.32L357.34 128.99C358.067 128.773 358.822 128.665 359.58 128.67C360.116 128.698 360.627 128.906 361.03 129.26C361.429 129.638 361.721 130.114 361.879 130.64C362.037 131.167 362.055 131.725 361.93 132.26C361.802 132.726 361.554 133.15 361.21 133.49C360.916 133.767 360.578 133.993 360.21 134.16C360.488 134.148 360.765 134.191 361.026 134.287C361.287 134.383 361.527 134.53 361.73 134.72C361.943 134.871 362.143 135.038 362.33 135.22L364.56 137.71L361.09 138.62L358.68 136C358.477 135.743 358.221 135.531 357.93 135.38C357.663 135.295 357.377 135.295 357.11 135.38L356.84 135.45L357.89 139.45L354.81 140.26ZM356.35 133.54L357.65 133.21C357.92 133.117 358.181 133 358.43 132.86C358.619 132.772 358.766 132.614 358.84 132.42C358.943 132.188 358.953 131.926 358.87 131.686C358.786 131.447 358.615 131.248 358.39 131.13C357.996 131.005 357.574 131.005 357.18 131.13L355.83 131.48L356.35 133.54Z" fill="white"/>
<path d="M365.6 137.449L363 127.509L368.12 126.179C368.848 125.967 369.602 125.859 370.36 125.859C370.893 125.888 371.4 126.096 371.8 126.449C372.245 126.839 372.554 127.361 372.68 127.939C372.82 128.436 372.82 128.962 372.68 129.459C372.549 129.919 372.305 130.339 371.97 130.679C371.672 130.954 371.335 131.183 370.97 131.359C371.273 131.362 371.573 131.413 371.86 131.509C372.084 131.62 372.295 131.754 372.49 131.909C372.7 132.059 372.897 132.227 373.08 132.409L375.32 134.909L371.85 135.809L369.42 133.199C369.216 132.939 368.956 132.727 368.66 132.579C368.397 132.494 368.113 132.494 367.85 132.579L367.58 132.649L368.63 136.649L365.6 137.449ZM367.15 130.739L368.45 130.399C368.716 130.303 368.973 130.186 369.22 130.049C369.316 130.007 369.402 129.947 369.474 129.871C369.546 129.796 369.603 129.707 369.64 129.609C369.74 129.379 369.749 129.119 369.665 128.881C369.582 128.644 369.412 128.447 369.19 128.329C368.795 128.195 368.365 128.195 367.97 128.329L366.63 128.679L367.15 130.739Z" fill="white"/>
<path d="M374.45 129.85C374.202 129.176 374.106 128.456 374.169 127.741C374.232 127.026 374.452 126.334 374.815 125.715C375.177 125.095 375.672 124.564 376.264 124.158C376.857 123.753 377.531 123.483 378.24 123.37C378.923 123.146 379.643 123.061 380.359 123.119C381.075 123.178 381.772 123.378 382.41 123.71C383.003 124.089 383.513 124.584 383.909 125.164C384.306 125.745 384.582 126.4 384.72 127.09C385.009 128.063 385.064 129.091 384.88 130.09C384.69 130.925 384.255 131.684 383.63 132.27C382.892 132.93 381.997 133.392 381.03 133.61C380.083 133.89 379.084 133.952 378.11 133.79C377.261 133.617 376.483 133.192 375.88 132.57C375.172 131.805 374.679 130.866 374.45 129.85ZM377.52 129.07C377.651 129.846 378.046 130.553 378.64 131.07C378.89 131.227 379.17 131.331 379.461 131.377C379.753 131.423 380.051 131.409 380.337 131.336C380.623 131.263 380.892 131.132 381.126 130.953C381.36 130.773 381.556 130.547 381.7 130.29C381.952 129.489 381.931 128.627 381.64 127.84C381.513 127.095 381.123 126.421 380.54 125.94C380.293 125.774 380.012 125.666 379.718 125.623C379.424 125.58 379.124 125.602 378.84 125.69C378.555 125.753 378.287 125.88 378.059 126.062C377.83 126.244 377.646 126.476 377.52 126.74C377.251 127.493 377.251 128.316 377.52 129.07Z" fill="white"/>
<path d="M387.73 131.69L385.14 121.76L390.26 120.43C390.985 120.207 391.741 120.1 392.5 120.11C393.036 120.136 393.548 120.344 393.95 120.7C394.35 121.077 394.643 121.553 394.8 122.08C394.956 122.607 394.97 123.166 394.84 123.7C394.71 124.163 394.466 124.586 394.13 124.93C393.836 125.207 393.498 125.433 393.13 125.6C393.436 125.611 393.739 125.664 394.03 125.76C394.251 125.865 394.46 125.996 394.65 126.15C394.863 126.3 395.06 126.471 395.24 126.66L397.48 129.15L394.01 130.06L391.58 127.45C391.372 127.19 391.114 126.976 390.82 126.82C390.556 126.74 390.274 126.74 390.01 126.82L389.74 126.89L390.79 130.89L387.73 131.69ZM389.27 124.98L390.57 124.65C390.838 124.552 391.099 124.435 391.35 124.3C391.536 124.209 391.682 124.052 391.76 123.86C391.863 123.628 391.873 123.366 391.79 123.126C391.706 122.887 391.535 122.688 391.31 122.57C390.917 122.44 390.493 122.44 390.1 122.57L388.75 122.92L389.27 124.98Z" fill="white"/>
<path d="M318.74 93.2398L339.44 87.7998L341.26 94.7998L327.26 98.4798L327.75 103.39C328.555 102.704 329.43 102.104 330.36 101.6C331.223 101.139 332.136 100.777 333.08 100.52C334.464 100.096 335.919 99.9514 337.36 100.096C338.8 100.24 340.197 100.67 341.47 101.36C342.675 102.035 343.725 102.953 344.555 104.057C345.385 105.161 345.976 106.425 346.29 107.77C346.81 109.817 346.81 111.962 346.29 114.01C345.803 116.086 344.702 117.968 343.13 119.41C341.2 121.054 338.896 122.201 336.42 122.75C334.638 123.249 332.8 123.521 330.95 123.56C329.504 123.578 328.067 123.317 326.72 122.79C325.543 122.313 324.457 121.637 323.51 120.79C322.501 119.833 321.635 118.735 320.94 117.53L329.51 114.25C329.946 115.432 330.771 116.43 331.85 117.08C332.793 117.6 333.903 117.729 334.94 117.44C335.517 117.302 336.056 117.035 336.515 116.66C336.974 116.284 337.341 115.808 337.59 115.27C338.156 113.854 338.195 112.282 337.7 110.84C337.437 109.334 336.624 107.98 335.42 107.04C334.9 106.713 334.315 106.503 333.705 106.423C333.096 106.344 332.477 106.397 331.89 106.58C331.038 106.806 330.255 107.239 329.61 107.84C328.983 108.452 328.475 109.174 328.11 109.97L320.4 110.85L318.74 93.2398Z" fill="white"/>
<path d="M348.53 102.049C346.957 96.0892 346.933 91.6325 348.46 88.6792C349.987 85.7258 352.947 83.6758 357.34 82.5292C359.094 82.0114 360.926 81.8149 362.75 81.9492C364.098 82.0731 365.408 82.4676 366.6 83.1092C367.608 83.6663 368.523 84.3783 369.31 85.2192C370.095 86.1023 370.767 87.0798 371.31 88.1292C372.532 90.3671 373.469 92.7489 374.1 95.2192C375.6 100.906 375.733 105.326 374.5 108.479C373.267 111.633 370.293 113.823 365.58 115.049C363.401 115.718 361.094 115.858 358.85 115.459C356.976 115.04 355.249 114.125 353.85 112.809C352.598 111.577 351.581 110.126 350.85 108.529C349.859 106.453 349.082 104.282 348.53 102.049ZM357.18 99.7992C358.227 103.799 359.297 106.436 360.39 107.709C360.783 108.276 361.337 108.712 361.981 108.96C362.625 109.208 363.328 109.256 364 109.099C364.843 108.874 365.562 108.323 366 107.569C366.538 106.55 366.77 105.397 366.67 104.249C366.492 102.081 366.093 99.9365 365.48 97.8492C364.393 93.6892 363.307 90.9825 362.22 89.7292C361.801 89.1569 361.218 88.7246 360.549 88.4891C359.88 88.2535 359.155 88.2257 358.47 88.4092C357.784 88.5788 357.169 88.9597 356.711 89.498C356.254 90.0364 355.977 90.7049 355.92 91.4092C355.76 93.0592 356.14 95.8492 357.18 99.7992Z" fill="white"/>
<path d="M384.52 85.67L375.89 86.36C375.808 83.7955 376.649 81.2866 378.26 79.2899C379.84 77.38 382.41 75.95 385.98 75.02C390.08 73.94 393.243 73.94 395.47 75.02C396.513 75.4736 397.438 76.1601 398.175 77.0268C398.912 77.8935 399.44 78.9174 399.72 80.02C400.078 81.3375 400.026 82.7329 399.57 84.02C399.015 85.465 398.123 86.7573 396.97 87.79C398 87.7421 399.032 87.8499 400.03 88.11C401.209 88.4608 402.275 89.1161 403.12 90.01C404.027 91.0102 404.663 92.2251 404.97 93.5399C405.448 95.3884 405.431 97.3302 404.92 99.17C404.406 101.112 403.319 102.855 401.8 104.17C399.838 105.747 397.538 106.849 395.08 107.39C392.815 108.079 390.44 108.336 388.08 108.15C386.334 107.949 384.668 107.305 383.24 106.28C381.72 105.14 380.451 103.7 379.51 102.05L387.92 98.61C388.427 99.9178 389.316 101.043 390.47 101.84C391.393 102.327 392.469 102.435 393.47 102.14C394.024 102.005 394.542 101.751 394.987 101.395C395.433 101.039 395.796 100.59 396.05 100.08C396.619 98.9184 396.716 97.5814 396.32 96.35C396.079 95.1024 395.362 93.9978 394.32 93.27C393.82 92.9654 393.26 92.772 392.679 92.7029C392.097 92.6339 391.508 92.6909 390.95 92.87C390.004 93.1713 389.1 93.5913 388.26 94.12L387.08 87.78C387.47 87.7404 387.858 87.6769 388.24 87.59C388.769 87.4663 389.269 87.2392 389.71 86.9217C390.151 86.6042 390.525 86.2026 390.81 85.74C391.089 85.3194 391.276 84.844 391.357 84.3457C391.438 83.8473 391.412 83.3374 391.28 82.85C391.189 82.4255 391.013 82.024 390.762 81.6699C390.511 81.3157 390.19 81.0163 389.82 80.7899C389.428 80.5779 388.998 80.4474 388.555 80.4061C388.111 80.3649 387.664 80.4138 387.24 80.55C386.777 80.6515 386.338 80.8444 385.95 81.1174C385.562 81.3904 385.232 81.738 384.98 82.14C384.461 83.2395 384.3 84.4741 384.52 85.67Z" fill="white"/>
</svg>
