<svg width="422" height="391" viewBox="0 0 422 391" fill="none" xmlns="http://www.w3.org/2000/svg">
<g clip-path="url(#clip0_2226_43065)">
<path d="M199.4 390.05H6.30009C4.7857 390.05 3.33334 389.448 2.26251 388.378C1.19168 387.307 0.590088 385.854 0.590088 384.34V5.66C0.603273 4.15429 1.21068 2.71475 2.28008 1.65471C3.34949 0.594662 4.79432 -5.77259e-05 6.30009 4.20255e-09H199.4C200.15 4.20255e-09 200.892 0.147692 201.585 0.434647C202.278 0.721601 202.907 1.1422 203.438 1.67242C203.968 2.20264 204.388 2.83211 204.675 3.52488C204.962 4.21765 205.11 4.96015 205.11 5.71V384.34C205.11 385.09 204.962 385.832 204.675 386.525C204.388 387.218 203.968 387.847 203.438 388.378C202.907 388.908 202.278 389.328 201.585 389.615C200.892 389.902 200.15 390.05 199.4 390.05ZM6.30009 0.200001C4.85282 0.202644 3.46558 0.77874 2.4422 1.80212C1.41883 2.82549 0.842731 4.21273 0.840088 5.66V384.34C0.842731 385.787 1.41883 387.174 2.4422 388.198C3.46558 389.221 4.85282 389.797 6.30009 389.8H199.4C200.847 389.797 202.235 389.221 203.258 388.198C204.281 387.174 204.857 385.787 204.86 384.34V5.66C204.857 4.21273 204.281 2.82549 203.258 1.80212C202.235 0.77874 200.847 0.202644 199.4 0.200001H6.30009Z" fill="#EBEBEB"/>
<path d="M415.7 390.05H222.6C221.086 390.05 219.633 389.448 218.563 388.378C217.492 387.307 216.89 385.854 216.89 384.34V5.66C216.903 4.15429 217.511 2.71475 218.58 1.65471C219.65 0.594662 221.094 -5.77259e-05 222.6 4.20255e-09H415.7C417.215 4.20256e-09 418.667 0.601588 419.738 1.67242C420.809 2.74325 421.41 4.19561 421.41 5.71V384.34C421.41 385.09 421.262 385.832 420.975 386.525C420.689 387.218 420.268 387.847 419.738 388.378C419.207 388.908 418.578 389.328 417.885 389.615C417.193 389.902 416.45 390.05 415.7 390.05ZM222.6 0.200001C221.153 0.202644 219.766 0.77874 218.742 1.80212C217.719 2.82549 217.143 4.21273 217.14 5.66V384.34C217.143 385.787 217.719 387.174 218.742 388.198C219.766 389.221 221.153 389.797 222.6 389.8H415.7C417.147 389.797 418.535 389.221 419.558 388.198C420.581 387.174 421.158 385.787 421.16 384.34V5.66C421.158 4.21273 420.581 2.82549 419.558 1.80212C418.535 0.77874 417.147 0.202644 415.7 0.200001H222.6Z" fill="#EBEBEB"/>
<path d="M74.0501 113.25L75.6701 116.52L79.2901 117.05L76.6701 119.6L77.2901 123.2L74.0501 121.5L70.8201 123.2L71.4401 119.6L68.8201 117.05L72.4401 116.52L74.0501 113.25Z" fill="#EBEBEB"/>
<path d="M397.7 267.48L399.32 270.76L402.94 271.29L400.32 273.83L400.94 277.44L397.7 275.74L394.47 277.44L395.09 273.83L392.47 271.29L396.09 270.76L397.7 267.48Z" fill="#F5F5F5"/>
<path d="M333.6 362.57L335.22 365.84L338.83 366.37L336.21 368.92L336.83 372.52L333.6 370.82L330.37 372.52L330.98 368.92L328.37 366.37L331.98 365.84L333.6 362.57Z" fill="#F5F5F5"/>
<path d="M186.94 55.1497L187.54 56.3697L188.89 56.5697C188.965 56.5796 189.036 56.6107 189.095 56.6594C189.153 56.7081 189.196 56.7724 189.219 56.8448C189.242 56.9172 189.244 56.9947 189.225 57.0682C189.206 57.1416 189.166 57.2081 189.11 57.2597L188.11 58.2097L188.34 59.5497C188.352 59.6243 188.343 59.7007 188.314 59.7705C188.285 59.8403 188.238 59.9007 188.177 59.9452C188.115 59.9897 188.043 60.0164 187.968 60.0225C187.893 60.0286 187.817 60.0138 187.75 59.9797L186.55 59.3397L185.35 59.9797C185.283 60.0138 185.207 60.0286 185.132 60.0225C185.057 60.0164 184.984 59.9897 184.923 59.9452C184.862 59.9007 184.815 59.8403 184.786 59.7705C184.757 59.7007 184.748 59.6243 184.76 59.5497L184.98 58.2097L183.98 57.2597C183.924 57.2074 183.884 57.1402 183.865 57.0659C183.846 56.9917 183.849 56.9136 183.874 56.8409C183.898 56.7682 183.942 56.704 184.002 56.656C184.062 56.6079 184.134 56.578 184.21 56.5697L185.55 56.3697L186.15 55.1497C186.174 55.0634 186.226 54.9873 186.297 54.9332C186.368 54.879 186.455 54.8496 186.545 54.8496C186.635 54.8496 186.722 54.879 186.793 54.9332C186.864 54.9873 186.916 55.0634 186.94 55.1497Z" fill="#EBEBEB"/>
<path d="M21.78 347L22.38 348.21L23.72 348.41C23.7961 348.421 23.8677 348.452 23.9266 348.502C23.9856 348.551 24.0296 348.616 24.0536 348.688C24.0775 348.761 24.0805 348.84 24.0622 348.914C24.0439 348.989 24.005 349.057 23.95 349.11L22.95 350.05L23.18 351.39C23.1918 351.465 23.1828 351.541 23.1539 351.611C23.1251 351.681 23.0775 351.741 23.0165 351.786C22.9555 351.83 22.8834 351.857 22.8081 351.863C22.7328 351.869 22.6574 351.854 22.59 351.82L21.39 351.19L20.19 351.82C20.1226 351.854 20.0471 351.869 19.9719 351.863C19.8966 351.857 19.8245 351.83 19.7635 351.786C19.7024 351.741 19.6549 351.681 19.626 351.611C19.5972 351.541 19.5882 351.465 19.6 351.39L19.83 350.05L18.83 349.11C18.7751 349.057 18.7361 348.99 18.7173 348.916C18.6985 348.843 18.7006 348.765 18.7235 348.692C18.7463 348.62 18.789 348.555 18.8466 348.505C18.9043 348.455 18.9747 348.422 19.05 348.41L20.39 348.21L21 347C21.0267 346.918 21.0788 346.846 21.1489 346.795C21.219 346.744 21.3034 346.717 21.39 346.717C21.4766 346.717 21.561 346.744 21.6311 346.795C21.7011 346.846 21.7533 346.918 21.78 347Z" fill="#F5F5F5"/>
<path d="M48.7501 42.2999L49.3501 43.5199L50.7001 43.7099C50.7753 43.7219 50.8457 43.7547 50.9034 43.8045C50.9611 43.8543 51.0038 43.9192 51.0266 43.9919C51.0495 44.0646 51.0516 44.1422 51.0328 44.216C51.014 44.2899 50.9749 44.357 50.9201 44.4099L49.9201 45.4099L50.1501 46.7399C50.1661 46.8154 50.1599 46.8939 50.1322 46.966C50.1046 47.038 50.0567 47.1005 49.9943 47.146C49.932 47.1914 49.8578 47.2179 49.7807 47.2221C49.7037 47.2264 49.6271 47.2082 49.5601 47.1699L48.3601 46.5399L47.1601 47.1699C47.0931 47.2082 47.0165 47.2264 46.9394 47.2221C46.8624 47.2179 46.7882 47.1914 46.7258 47.146C46.6635 47.1005 46.6156 47.038 46.5879 46.966C46.5603 46.8939 46.5541 46.8154 46.5701 46.7399L46.7901 45.4099L45.7901 44.4099C45.735 44.3564 45.6962 44.2884 45.6778 44.2138C45.6595 44.1393 45.6625 44.061 45.6865 43.9881C45.7105 43.9151 45.7545 43.8504 45.8134 43.8012C45.8724 43.752 45.944 43.7204 46.0201 43.7099L47.3601 43.5199L48.0001 42.2999C48.0322 42.2272 48.0847 42.1655 48.1513 42.1221C48.2179 42.0787 48.2956 42.0557 48.3751 42.0557C48.4545 42.0557 48.5323 42.0787 48.5988 42.1221C48.6654 42.1655 48.718 42.2272 48.7501 42.2999Z" fill="#EBEBEB"/>
<path d="M47.1302 283.32C47.1322 283.583 47.0558 283.842 46.9109 284.062C46.766 284.282 46.559 284.454 46.3161 284.556C46.0733 284.658 45.8055 284.686 45.5469 284.636C45.2882 284.585 45.0503 284.46 44.8633 284.274C44.6763 284.088 44.5486 283.851 44.4965 283.593C44.4444 283.335 44.4701 283.067 44.5705 282.823C44.6709 282.58 44.8413 282.371 45.0602 282.225C45.2792 282.078 45.5367 282 45.8002 282C46.1512 282 46.488 282.139 46.7371 282.386C46.9862 282.633 47.1275 282.969 47.1302 283.32Z" fill="#EBEBEB"/>
<path d="M236.67 116.89C236.672 117.154 236.596 117.412 236.451 117.632C236.306 117.852 236.099 118.024 235.856 118.126C235.613 118.228 235.345 118.256 235.087 118.206C234.828 118.156 234.59 118.03 234.403 117.844C234.216 117.659 234.089 117.422 234.036 117.164C233.984 116.905 234.01 116.637 234.11 116.394C234.211 116.15 234.381 115.942 234.6 115.795C234.819 115.649 235.077 115.57 235.34 115.57C235.514 115.569 235.687 115.602 235.848 115.668C236.01 115.734 236.156 115.831 236.28 115.953C236.404 116.076 236.502 116.222 236.569 116.383C236.636 116.544 236.67 116.716 236.67 116.89Z" fill="#EBEBEB"/>
<path d="M167.71 43.4003C167.71 43.6634 167.632 43.9205 167.486 44.1392C167.34 44.3579 167.132 44.5284 166.889 44.6291C166.646 44.7297 166.379 44.7561 166.121 44.7048C165.863 44.6534 165.626 44.5268 165.44 44.3408C165.254 44.1548 165.127 43.9178 165.076 43.6598C165.024 43.4018 165.051 43.1344 165.151 42.8913C165.252 42.6483 165.422 42.4406 165.641 42.2945C165.86 42.1483 166.117 42.0703 166.38 42.0703C166.732 42.0729 167.069 42.2139 167.318 42.4628C167.566 42.7116 167.707 43.0484 167.71 43.4003Z" fill="#F5F5F5"/>
<path d="M169.816 367.543C173.767 366.611 176.214 362.652 175.281 358.702C174.349 354.751 170.39 352.304 166.44 353.236C162.489 354.169 160.042 358.128 160.975 362.078C161.907 366.029 165.866 368.476 169.816 367.543Z" fill="#F0F0F0"/>
<path d="M165.6 356.09C164.094 356.087 162.627 356.563 161.41 357.45C160.789 358.876 160.636 360.462 160.974 361.98C161.313 363.498 162.124 364.869 163.293 365.896C164.461 366.923 165.925 367.552 167.473 367.693C169.022 367.834 170.576 367.479 171.91 366.68C172.501 365.587 172.797 364.36 172.771 363.119C172.745 361.877 172.397 360.664 171.761 359.597C171.125 358.531 170.223 357.648 169.143 357.035C168.063 356.421 166.842 356.099 165.6 356.1V356.09Z" fill="#E6E6E6"/>
<path d="M108.68 232.639H47.8301V205.169L108.68 132.829H137.8V206.729H152.89V232.639H137.8V255.119H108.68V232.639ZM108.68 206.729V168.889L76.5201 206.729H108.68Z" fill="#157C7B"/>
<path d="M163.3 194.51C163.3 171.65 167.413 155.65 175.64 146.51C183.867 137.37 196.403 132.803 213.25 132.81C221.337 132.81 227.98 133.81 233.18 135.81C237.904 137.512 242.229 140.163 245.89 143.6C248.976 146.546 251.59 149.949 253.64 153.69C255.669 157.595 257.198 161.741 258.19 166.03C260.451 175.19 261.579 184.594 261.55 194.03C261.55 215.843 257.86 231.806 250.48 241.92C243.1 252.033 230.39 257.093 212.35 257.1C202.23 257.1 194.053 255.486 187.82 252.26C181.537 248.98 176.244 244.081 172.49 238.07C169.59 233.643 167.333 227.586 165.72 219.9C164.045 211.542 163.234 203.033 163.3 194.51ZM196.44 194.59C196.44 209.923 197.79 220.38 200.49 225.96C203.19 231.54 207.113 234.343 212.26 234.37C213.893 234.388 215.514 234.082 217.028 233.469C218.542 232.856 219.919 231.949 221.08 230.8C223.573 228.42 225.407 224.66 226.58 219.52C227.753 214.38 228.34 206.38 228.34 195.52C228.34 179.56 226.987 168.83 224.28 163.33C221.573 157.83 217.513 155.083 212.1 155.09C206.58 155.09 202.58 157.893 200.1 163.5C197.62 169.106 196.4 179.47 196.44 194.59Z" fill="#157C7B"/>
<path d="M332.74 232.639H271.89V205.169L332.74 132.829H361.86V206.729H377V232.639H361.86V255.119H332.74V232.639ZM332.74 206.729V168.889L300.59 206.729H332.74Z" fill="#157C7B"/>
<g opacity="0.3">
<path d="M162 90.62C162 90.9903 161.89 91.3522 161.684 91.66C161.478 91.9677 161.186 92.2074 160.844 92.3486C160.501 92.4899 160.125 92.5263 159.762 92.4533C159.399 92.3804 159.066 92.2013 158.804 91.9387C158.543 91.6762 158.366 91.3421 158.295 90.9787C158.224 90.6153 158.262 90.239 158.405 89.8975C158.549 89.5559 158.79 89.2646 159.099 89.0603C159.407 88.856 159.77 88.748 160.14 88.75C160.385 88.75 160.628 88.7985 160.854 88.8926C161.081 88.9867 161.286 89.1246 161.459 89.2983C161.632 89.4721 161.769 89.6783 161.862 89.9052C161.954 90.132 162.002 90.3749 162 90.62Z" fill="#157C7B"/>
<path d="M33.9701 162.45C34.6992 162.45 35.2901 161.859 35.2901 161.13C35.2901 160.401 34.6992 159.81 33.9701 159.81C33.2411 159.81 32.6501 160.401 32.6501 161.13C32.6501 161.859 33.2411 162.45 33.9701 162.45Z" fill="#157C7B"/>
<path d="M252.05 355.219C253.094 355.219 253.94 354.373 253.94 353.329C253.94 352.286 253.094 351.439 252.05 351.439C251.006 351.439 250.16 352.286 250.16 353.329C250.16 354.373 251.006 355.219 252.05 355.219Z" fill="#157C7B"/>
<path d="M297.5 278.32C298.229 278.32 298.82 277.729 298.82 277C298.82 276.271 298.229 275.68 297.5 275.68C296.771 275.68 296.18 276.271 296.18 277C296.18 277.729 296.771 278.32 297.5 278.32Z" fill="#157C7B"/>
<path d="M385.17 40.6198C385.17 40.8809 385.093 41.1361 384.948 41.3532C384.803 41.5702 384.596 41.7394 384.355 41.8393C384.114 41.9392 383.849 41.9654 383.593 41.9144C383.337 41.8635 383.101 41.7378 382.917 41.5532C382.732 41.3686 382.606 41.1334 382.556 40.8773C382.505 40.6213 382.531 40.3559 382.631 40.1147C382.731 39.8735 382.9 39.6673 383.117 39.5223C383.334 39.3772 383.589 39.2998 383.85 39.2998C384.2 39.2998 384.536 39.4389 384.784 39.6864C385.031 39.934 385.17 40.2697 385.17 40.6198Z" fill="#157C7B"/>
<path d="M133.75 13.9997C133.75 14.2608 133.673 14.516 133.528 14.733C133.383 14.9501 133.176 15.1193 132.935 15.2192C132.694 15.3191 132.429 15.3453 132.173 15.2943C131.917 15.2434 131.681 15.1177 131.497 14.9331C131.312 14.7485 131.186 14.5133 131.135 14.2572C131.085 14.0012 131.111 13.7357 131.211 13.4945C131.31 13.2533 131.48 13.0472 131.697 12.9021C131.914 12.7571 132.169 12.6797 132.43 12.6797C132.779 12.6823 133.114 12.8222 133.361 13.0692C133.608 13.3162 133.747 13.6504 133.75 13.9997Z" fill="#157C7B"/>
<path d="M238.7 83.2601C239.429 83.2601 240.02 82.6691 240.02 81.9401C240.02 81.2111 239.429 80.6201 238.7 80.6201C237.971 80.6201 237.38 81.2111 237.38 81.9401C237.38 82.6691 237.971 83.2601 238.7 83.2601Z" fill="#157C7B"/>
</g>
<path d="M102.23 83.2692C114.331 83.2692 124.14 73.4598 124.14 61.3592C124.14 49.2587 114.331 39.4492 102.23 39.4492C90.1295 39.4492 80.3201 49.2587 80.3201 61.3592C80.3201 73.4598 90.1295 83.2692 102.23 83.2692Z" fill="#157C7B"/>
<path opacity="0.7" d="M102.23 83.2692C114.331 83.2692 124.14 73.4598 124.14 61.3592C124.14 49.2587 114.331 39.4492 102.23 39.4492C90.1295 39.4492 80.3201 49.2587 80.3201 61.3592C80.3201 73.4598 90.1295 83.2692 102.23 83.2692Z" fill="white"/>
<path opacity="0.2" d="M94.6802 44.8302C91.6963 44.821 88.7422 45.4234 86.0002 46.6002C82.6302 50.3041 80.6299 55.0502 80.3322 60.0489C80.0346 65.0476 81.4574 69.9976 84.364 74.0753C87.2706 78.1529 91.4858 81.1125 96.3082 82.4615C101.131 83.8106 106.27 83.4678 110.87 81.4902C113.722 78.3468 115.601 74.4429 116.277 70.2525C116.953 66.0622 116.398 61.7656 114.68 57.8845C112.961 54.0035 110.153 50.7049 106.595 48.3893C103.038 46.0737 98.8848 44.8408 94.6402 44.8402L94.6802 44.8302Z" fill="#157C7B"/>
<path opacity="0.2" d="M92.5002 50.6201C92.5002 51.0157 92.3829 51.4024 92.1632 51.7313C91.9434 52.0602 91.6311 52.3165 91.2656 52.4679C90.9002 52.6192 90.498 52.6589 90.1101 52.5817C89.7221 52.5045 89.3657 52.314 89.086 52.0343C88.8063 51.7546 88.6158 51.3983 88.5387 51.0103C88.4615 50.6223 88.5011 50.2202 88.6525 49.8547C88.8039 49.4893 89.0602 49.1769 89.3891 48.9572C89.718 48.7374 90.1047 48.6201 90.5002 48.6201C91.0307 48.6201 91.5394 48.8308 91.9145 49.2059C92.2895 49.581 92.5002 50.0897 92.5002 50.6201Z" fill="#157C7B"/>
<path opacity="0.2" d="M116.06 48.6201C116.06 49.0157 115.943 49.4024 115.723 49.7313C115.503 50.0602 115.191 50.3165 114.825 50.4679C114.46 50.6192 114.058 50.6589 113.67 50.5817C113.282 50.5045 112.926 50.314 112.646 50.0343C112.366 49.7546 112.176 49.3983 112.098 49.0103C112.021 48.6223 112.061 48.2202 112.212 47.8547C112.364 47.4893 112.62 47.1769 112.949 46.9572C113.278 46.7374 113.664 46.6201 114.06 46.6201C114.59 46.6201 115.099 46.8308 115.474 47.2059C115.849 47.581 116.06 48.0897 116.06 48.6201Z" fill="#157C7B"/>
<path opacity="0.2" d="M112.06 62.9001C112.06 63.5488 111.868 64.183 111.507 64.7224C111.147 65.2618 110.635 65.6822 110.035 65.9304C109.436 66.1787 108.777 66.2436 108.14 66.1171C107.504 65.9905 106.92 65.6781 106.461 65.2194C106.002 64.7607 105.69 64.1763 105.563 63.54C105.437 62.9038 105.502 62.2443 105.75 61.6449C105.998 61.0456 106.419 60.5333 106.958 60.1729C107.497 59.8125 108.132 59.6201 108.78 59.6201C109.65 59.6201 110.484 59.9657 111.1 60.5808C111.715 61.1959 112.06 62.0302 112.06 62.9001Z" fill="#157C7B"/>
<path opacity="0.2" d="M101.64 72.2501C101.64 73.1164 101.383 73.9632 100.902 74.6835C100.421 75.4038 99.7366 75.9652 98.9363 76.2967C98.1359 76.6282 97.2553 76.715 96.4056 76.546C95.556 76.3769 94.7756 75.9598 94.163 75.3472C93.5504 74.7347 93.1333 73.9542 92.9643 73.1046C92.7953 72.255 92.882 71.3743 93.2135 70.574C93.5451 69.7736 94.1064 69.0896 94.8267 68.6083C95.547 68.127 96.3938 67.8701 97.2601 67.8701C98.4218 67.8701 99.5359 68.3316 100.357 69.153C101.179 69.9744 101.64 71.0885 101.64 72.2501Z" fill="#157C7B"/>
<path d="M361.9 325.646C364.34 315.31 357.938 304.953 347.601 302.513C337.265 300.074 326.908 306.475 324.468 316.812C322.029 327.148 328.43 337.505 338.767 339.945C349.103 342.384 359.46 335.983 361.9 325.646Z" fill="#157C7B"/>
<path opacity="0.3" d="M361.9 325.646C364.34 315.31 357.938 304.953 347.601 302.513C337.265 300.074 326.908 306.475 324.468 316.812C322.029 327.148 328.43 337.505 338.767 339.945C349.103 342.384 359.46 335.983 361.9 325.646Z" fill="white"/>
<path opacity="0.4" d="M355.33 306.339C351.067 305.053 346.49 305.286 342.38 307C338.27 308.713 334.883 311.801 332.796 315.735C330.71 319.669 330.055 324.205 330.942 328.569C331.829 332.932 334.204 336.852 337.66 339.659C339.453 340.204 341.316 340.48 343.19 340.479C347.16 340.479 351.033 339.249 354.276 336.959C357.519 334.67 359.974 331.433 361.304 327.692C362.634 323.952 362.774 319.891 361.705 316.068C360.635 312.245 358.408 308.847 355.33 306.339Z" fill="#157C7B"/>
<path d="M324.83 327C304.3 336.66 319.61 344.11 348.54 333.71C375.33 324.08 385.54 311.94 361.54 315.71C362.83 320.76 329.28 333.83 324.83 327Z" fill="#157C7B"/>
<path opacity="0.2" d="M355.1 132.83C328.21 151 293.4 175 283.79 232.64H281.74C291.09 175.64 324.63 151.07 351.53 132.83H355.1Z" fill="black"/>
<path d="M216 313.271C199 313.271 182.19 305.601 174 293.081C168.95 285.341 163.08 269.131 180.56 247.501L182.11 248.761C169.75 264.061 167.47 279.411 175.68 291.991C185.68 307.291 209.27 314.991 229.41 309.511C250.04 303.901 262.56 285.961 263.77 260.291C267.9 172.481 314.55 145.431 348.61 125.681C369.78 113.411 385.07 104.551 381.71 85.8406C381.24 83.2506 380.21 81.4606 378.54 80.3606C374.19 77.4906 365.69 79.4806 355.85 81.7706C336.54 86.2706 310.1 92.4306 294.35 65.6406L296.08 64.6406C311.08 90.1706 335.65 84.4406 355.4 79.8406C365.69 77.4506 374.57 75.3806 379.64 78.7106C381.79 80.1206 383.11 82.3506 383.64 85.5106C387.25 105.591 370.64 115.231 349.59 127.431C315.92 146.951 269.82 173.681 265.74 260.431C264.48 287.031 251.42 305.641 229.9 311.491C225.366 312.698 220.692 313.297 216 313.271Z" fill="#157C7B"/>
<path opacity="0.2" d="M216 313.271C199 313.271 182.19 305.601 174 293.081C168.95 285.341 163.08 269.131 180.56 247.501L182.11 248.761C169.75 264.061 167.47 279.411 175.68 291.991C185.68 307.291 209.27 314.991 229.41 309.511C250.04 303.901 262.56 285.961 263.77 260.291C267.9 172.481 314.55 145.431 348.61 125.681C369.78 113.411 385.07 104.551 381.71 85.8406C381.24 83.2506 380.21 81.4606 378.54 80.3606C374.19 77.4906 365.69 79.4806 355.85 81.7706C336.54 86.2706 310.1 92.4306 294.35 65.6406L296.08 64.6406C311.08 90.1706 335.65 84.4406 355.4 79.8406C365.69 77.4506 374.57 75.3806 379.64 78.7106C381.79 80.1206 383.11 82.3506 383.64 85.5106C387.25 105.591 370.64 115.231 349.59 127.431C315.92 146.951 269.82 173.681 265.74 260.431C264.48 287.031 251.42 305.641 229.9 311.491C225.366 312.698 220.692 313.297 216 313.271Z" fill="white"/>
<path d="M273.76 42C278.368 42.0266 282.946 42.7446 287.34 44.13C287.34 44.13 298.34 62.9 299.64 67.2C299.18 71.44 292.03 78.39 292.03 78.39L273.76 42Z" fill="#157C7B"/>
<path opacity="0.3" d="M273.76 42C278.368 42.0266 282.946 42.7446 287.34 44.13C287.34 44.13 298.34 62.9 299.64 67.2C299.18 71.44 292.03 78.39 292.03 78.39L273.76 42Z" fill="white"/>
<path d="M306.34 133.13C302.104 127.951 298.241 122.477 294.78 116.75C293.94 115.303 293.143 113.83 292.39 112.33C291.96 111.48 291.55 110.63 291.15 109.77C290.625 108.933 290.218 108.028 289.94 107.08C288.74 94.4102 293.08 85.0802 288.94 74.9102L272.46 81.3502C272.46 81.3502 273.86 99.4702 277.06 110.35C279.06 117.08 283.54 122.9 287.87 128.29C289.22 129.97 290.52 131.7 291.87 133.39C293.22 135.08 294.58 136.45 295.87 138.04C297.82 140.45 298.46 142.76 296.99 145.6L296.74 146.05C296.32 146.79 298.28 147.63 299.52 146.05C301.52 143.47 301.24 143.63 302.98 141.43C304.04 140.1 305.25 138.65 306.3 137.43C306.807 136.83 307.088 136.072 307.095 135.287C307.102 134.502 306.835 133.739 306.34 133.13Z" fill="#157C7B"/>
<path opacity="0.7" d="M306.34 133.13C302.104 127.951 298.241 122.477 294.78 116.75C293.94 115.303 293.143 113.83 292.39 112.33C291.96 111.48 291.55 110.63 291.15 109.77C290.625 108.933 290.218 108.028 289.94 107.08C288.74 94.4102 293.08 85.0802 288.94 74.9102L272.46 81.3502C272.46 81.3502 273.86 99.4702 277.06 110.35C279.06 117.08 283.54 122.9 287.87 128.29C289.22 129.97 290.52 131.7 291.87 133.39C293.22 135.08 294.58 136.45 295.87 138.04C297.82 140.45 298.46 142.76 296.99 145.6L296.74 146.05C296.32 146.79 298.28 147.63 299.52 146.05C301.52 143.47 301.24 143.63 302.98 141.43C304.04 140.1 305.25 138.65 306.3 137.43C306.807 136.83 307.088 136.072 307.095 135.287C307.102 134.502 306.835 133.739 306.34 133.13Z" fill="white"/>
<path opacity="0.3" d="M302.31 127.92C299.695 130.723 296.792 133.244 293.65 135.44C294.08 135.92 294.5 136.44 294.93 136.9C298.076 134.775 300.933 132.25 303.43 129.39L302.31 127.92Z" fill="#157C7B"/>
<path opacity="0.3" d="M306.34 133.13L306.22 132.99C305.451 133.873 305.003 134.99 304.95 136.16C304.886 136.963 305.016 137.769 305.33 138.51L306.28 137.38C306.777 136.786 307.054 136.04 307.065 135.266C307.076 134.492 306.82 133.738 306.34 133.13Z" fill="#157C7B"/>
<path d="M269.84 54C268.054 56.6752 265.91 59.0941 263.47 61.19C262.117 62.3564 260.634 63.363 259.05 64.19C258.218 64.6164 257.356 64.9807 256.47 65.28L255.79 65.5L255.57 65.56L255.1 65.69C254.811 65.7587 254.517 65.8055 254.22 65.83C253.376 65.8946 252.528 65.8168 251.71 65.6C250.679 65.3073 249.69 64.8803 248.77 64.33C248.03 63.8972 247.312 63.4266 246.62 62.92C245.37 61.9901 244.174 60.9884 243.04 59.92C240.853 57.8475 238.845 55.5927 237.04 53.18C236.692 52.71 236.52 52.1334 236.552 51.5497C236.584 50.9659 236.819 50.4117 237.216 49.9826C237.613 49.5536 238.147 49.2765 238.727 49.1994C239.306 49.1222 239.895 49.2498 240.39 49.56H240.47C242.83 51.06 245.21 52.64 247.53 54.05C248.71 54.74 249.85 55.4401 250.98 55.9801C251.496 56.2501 252.027 56.4905 252.57 56.7C252.909 56.8495 253.271 56.9375 253.64 56.96C253.7 56.96 253.64 56.89 253.27 56.9C253.154 56.8931 253.037 56.8931 252.92 56.9L252.7 56.95L253.03 56.78C253.475 56.541 253.905 56.2772 254.32 55.99C255.215 55.3592 256.052 54.6497 256.82 53.87C258.567 52.0392 260.203 50.1058 261.72 48.08C262.551 47.1503 263.7 46.5647 264.94 46.438C266.181 46.3113 267.424 46.6527 268.425 47.3953C269.427 48.1379 270.115 49.228 270.355 50.4517C270.594 51.6755 270.368 52.9446 269.72 54.01L269.84 54Z" fill="#157C7B"/>
<path opacity="0.7" d="M269.84 54C268.054 56.6752 265.91 59.0941 263.47 61.19C262.117 62.3564 260.634 63.363 259.05 64.19C258.218 64.6164 257.356 64.9807 256.47 65.28L255.79 65.5L255.57 65.56L255.1 65.69C254.811 65.7587 254.517 65.8055 254.22 65.83C253.376 65.8946 252.528 65.8168 251.71 65.6C250.679 65.3073 249.69 64.8803 248.77 64.33C248.03 63.8972 247.312 63.4266 246.62 62.92C245.37 61.9901 244.174 60.9884 243.04 59.92C240.853 57.8475 238.845 55.5927 237.04 53.18C236.692 52.71 236.52 52.1334 236.552 51.5497C236.584 50.9659 236.819 50.4117 237.216 49.9826C237.613 49.5536 238.147 49.2765 238.727 49.1994C239.306 49.1222 239.895 49.2498 240.39 49.56H240.47C242.83 51.06 245.21 52.64 247.53 54.05C248.71 54.74 249.85 55.4401 250.98 55.9801C251.496 56.2501 252.027 56.4905 252.57 56.7C252.909 56.8495 253.271 56.9375 253.64 56.96C253.7 56.96 253.64 56.89 253.27 56.9C253.154 56.8931 253.037 56.8931 252.92 56.9L252.7 56.95L253.03 56.78C253.475 56.541 253.905 56.2772 254.32 55.99C255.215 55.3592 256.052 54.6497 256.82 53.87C258.567 52.0392 260.203 50.1058 261.72 48.08C262.551 47.1503 263.7 46.5647 264.94 46.438C266.181 46.3113 267.424 46.6527 268.425 47.3953C269.427 48.1379 270.115 49.228 270.355 50.4517C270.594 51.6755 270.368 52.9446 269.72 54.01L269.84 54Z" fill="white"/>
<path d="M233.29 47.4206L234.46 49.4206C234.46 49.4206 235.35 52.0406 237.14 52.5206L242 50.9506L241.75 50.5406C241.13 49.6006 241.2 47.7706 241.41 46.2506C241.62 44.7306 240.84 44.6806 240.26 45.0606C239.849 45.5334 239.561 46.1 239.42 46.7106C239.182 46.3803 238.917 46.0694 238.63 45.7806L237.15 44.3006C236.84 43.9971 236.426 43.8222 235.992 43.8111C235.558 43.8 235.136 43.9534 234.81 44.2406L233.61 45.3106C233.325 45.5739 233.139 45.9261 233.08 46.3095C233.022 46.6929 233.096 47.0847 233.29 47.4206Z" fill="#157C7B"/>
<path opacity="0.7" d="M233.29 47.4206L234.46 49.4206C234.46 49.4206 235.35 52.0406 237.14 52.5206L242 50.9506L241.75 50.5406C241.13 49.6006 241.2 47.7706 241.41 46.2506C241.62 44.7306 240.84 44.6806 240.26 45.0606C239.849 45.5334 239.561 46.1 239.42 46.7106C239.182 46.3803 238.917 46.0694 238.63 45.7806L237.15 44.3006C236.84 43.9971 236.426 43.8222 235.992 43.8111C235.558 43.8 235.136 43.9534 234.81 44.2406L233.61 45.3106C233.325 45.5739 233.139 45.9261 233.08 46.3095C233.022 46.6929 233.096 47.0847 233.29 47.4206Z" fill="white"/>
<path d="M278.67 40.2204C273.279 41.6493 268.116 43.8272 263.33 46.6904C262.583 47.1577 261.998 47.842 261.651 48.6517C261.304 49.4613 261.213 50.3576 261.39 51.2204C263.32 60.6604 267.71 73.3005 272.45 81.3505L294.56 72.2004C294.71 68.3004 289.34 55.6805 283.87 43.4805C282.89 41.2905 281 39.6604 278.67 40.2204Z" fill="#157C7B"/>
<path opacity="0.8" d="M278.67 40.2204C273.279 41.6493 268.116 43.8272 263.33 46.6904C262.583 47.1577 261.998 47.842 261.651 48.6517C261.304 49.4613 261.213 50.3576 261.39 51.2204C263.32 60.6604 267.71 73.3005 272.45 81.3505L294.56 72.2004C294.71 68.3004 289.34 55.6805 283.87 43.4805C282.89 41.2905 281 39.6604 278.67 40.2204Z" fill="white"/>
<path opacity="0.3" d="M287.3 51.2102L282.91 49.7402C283.91 52.3102 287.44 55.5602 289.91 57.4702C289.11 55.4702 288.22 53.3702 287.3 51.2102Z" fill="#157C7B"/>
<path d="M277.22 30.3204C275.39 26.8404 271.44 25.0904 266.7 25.4804C262.7 25.8204 259.16 29.9004 259.58 32.1004C260 34.3004 263.36 35.2404 264 36.0004L261.23 38.0004C260.902 38.2372 260.625 38.538 260.416 38.8846C260.207 39.2313 260.071 39.6166 260.015 40.0174C259.959 40.4182 259.984 40.8261 260.09 41.2168C260.196 41.6074 260.38 41.9726 260.63 42.2904C261.8 43.7704 263.34 45.2904 264.23 46.4104C271.89 46.2104 277.56 43.2904 279.61 40.4804C278.84 36.9204 279 33.7804 277.22 30.3204Z" fill="#157C7B"/>
<path opacity="0.8" d="M277.22 30.3204C275.39 26.8404 271.44 25.0904 266.7 25.4804C262.7 25.8204 259.16 29.9004 259.58 32.1004C260 34.3004 263.36 35.2404 264 36.0004L261.23 38.0004C260.902 38.2372 260.625 38.538 260.416 38.8846C260.207 39.2313 260.071 39.6166 260.015 40.0174C259.959 40.4182 259.984 40.8261 260.09 41.2168C260.196 41.6074 260.38 41.9726 260.63 42.2904C261.8 43.7704 263.34 45.2904 264.23 46.4104C271.89 46.2104 277.56 43.2904 279.61 40.4804C278.84 36.9204 279 33.7804 277.22 30.3204Z" fill="white"/>
<path d="M273.46 32.4801C274.004 33.8747 274.122 35.3992 273.8 36.861C273.477 38.3227 272.728 39.656 271.648 40.6924C270.568 41.7287 269.205 42.4216 267.731 42.6834C266.258 42.9453 264.739 42.7643 263.368 42.1633C261.997 41.5624 260.835 40.5685 260.029 39.3073C259.223 38.0461 258.809 36.5742 258.839 35.0776C258.869 33.581 259.342 32.127 260.199 30.8993C261.055 29.6716 262.256 28.7253 263.65 28.1801C265.521 27.4511 267.605 27.4945 269.445 28.3007C271.284 29.1069 272.728 30.6101 273.46 32.4801Z" fill="#263238"/>
<path d="M338.39 122.6C338.28 119.31 338.13 119.6 338.04 116.83C337.98 115.13 337.97 113.24 337.96 111.61C337.957 110.836 337.686 110.087 337.194 109.489C336.702 108.892 336.019 108.482 335.26 108.33C333.94 108.06 332.61 107.81 331.26 107.53C329.53 107.16 327.82 106.76 326.13 106.27C324.81 105.89 323.51 105.47 322.22 105C320.93 104.53 319.48 104 318.14 103.38C316.56 102.71 315 101.99 313.46 101.24C311.73 100.42 310.02 99.5602 308.31 98.6902C301.73 87.8002 301.59 80.6202 294.53 72.2002L279.37 79.0602C279.37 79.0602 290.51 98.8202 298.09 107.2C302.46 112.02 309.31 114.2 315.42 115.78C319.83 116.91 324.3 117.78 328.77 118.61C330.51 118.93 332.4 119.05 333.9 120.09C335.01 120.941 335.771 122.168 336.04 123.54C336.107 123.82 336.167 124.1 336.22 124.38C336.41 125.22 338.46 124.58 338.39 122.6Z" fill="#157C7B"/>
<path opacity="0.8" d="M338.39 122.6C338.28 119.31 338.13 119.6 338.04 116.83C337.98 115.13 337.97 113.24 337.96 111.61C337.957 110.836 337.686 110.087 337.194 109.489C336.702 108.892 336.019 108.482 335.26 108.33C333.94 108.06 332.61 107.81 331.26 107.53C329.53 107.16 327.82 106.76 326.13 106.27C324.81 105.89 323.51 105.47 322.22 105C320.93 104.53 319.48 104 318.14 103.38C316.56 102.71 315 101.99 313.46 101.24C311.73 100.42 310.02 99.5602 308.31 98.6902C301.73 87.8002 301.59 80.6202 294.53 72.2002L279.37 79.0602C279.37 79.0602 290.51 98.8202 298.09 107.2C302.46 112.02 309.31 114.2 315.42 115.78C319.83 116.91 324.3 117.78 328.77 118.61C330.51 118.93 332.4 119.05 333.9 120.09C335.01 120.941 335.771 122.168 336.04 123.54C336.107 123.82 336.167 124.1 336.22 124.38C336.41 125.22 338.46 124.58 338.39 122.6Z" fill="white"/>
<path opacity="0.3" d="M330.7 107.4C330.1 107.27 329.5 107.14 328.89 106.99C328.94 110.45 327.32 116.41 326.73 118.22L328.63 118.58C329.875 114.978 330.573 111.209 330.7 107.4Z" fill="#157C7B"/>
<path opacity="0.3" d="M338 111.611C337.997 110.838 337.728 110.09 337.238 109.492C336.748 108.895 336.067 108.485 335.31 108.331L334.31 108.141C334.471 109.277 335.052 110.312 335.94 111.041C336.511 111.568 337.195 111.958 337.94 112.181C338 112.001 338 111.801 338 111.611Z" fill="#157C7B"/>
<path d="M272.05 32.5403C272.45 34.0603 270.75 35.6503 269.4 34.3403C268.14 32.9894 266.761 31.7544 265.28 30.6503C263.89 29.7803 265.74 28.2603 267.93 28.8503C268.865 29.0851 269.728 29.5437 270.446 30.1865C271.164 30.8294 271.714 31.6372 272.05 32.5403Z" fill="white"/>
<path d="M272.16 80.8605C271.46 81.1205 272.74 82.3205 272.74 82.3205C272.74 82.3205 286.74 77.5305 295.24 72.6005C295.261 72.302 295.21 72.003 295.091 71.7282C294.973 71.4534 294.791 71.2108 294.56 71.0205C287.285 74.7211 279.807 78.0064 272.16 80.8605Z" fill="#157C7B"/>
<path opacity="0.5" d="M272.16 80.8605C271.46 81.1205 272.74 82.3205 272.74 82.3205C272.74 82.3205 286.74 77.5305 295.24 72.6005C295.261 72.302 295.21 72.003 295.091 71.7282C294.973 71.4534 294.791 71.2108 294.56 71.0205C287.285 74.7211 279.807 78.0064 272.16 80.8605Z" fill="white"/>
<path d="M282.46 39.5609C285.22 40.9609 287.81 42.4309 290.46 44.0609C291.75 44.8809 293.03 45.7109 294.3 46.6109C295.57 47.5109 296.83 48.4309 298.1 49.4709L298.57 49.8609L299.16 50.4009C299.512 50.7154 299.846 51.0493 300.16 51.4009C300.48 51.7509 300.75 52.0909 301.01 52.4009C301.27 52.7109 301.55 53.0809 301.78 53.4009C302.712 54.6864 303.573 56.0217 304.36 57.4009C305.91 60.0752 307.247 62.8671 308.36 65.7509C308.566 66.2957 308.576 66.895 308.39 67.4468C308.204 67.9986 307.832 68.4688 307.339 68.7776C306.845 69.0864 306.259 69.2146 305.682 69.1404C305.104 69.0663 304.57 68.7943 304.17 68.3709L304.12 68.3109C302.12 66.1809 300.19 63.9409 298.25 61.8509C296.31 59.7609 294.34 57.6409 292.71 56.7109C290.44 55.3009 287.91 53.8909 285.4 52.5109L277.84 48.3109C276.668 47.6902 275.79 46.6294 275.4 45.3616C275.01 44.0939 275.14 42.7231 275.76 41.5509C276.381 40.3786 277.442 39.5009 278.709 39.1108C279.977 38.7207 281.348 38.8503 282.52 39.4709L282.46 39.5609Z" fill="#157C7B"/>
<path opacity="0.8" d="M282.46 39.5609C285.22 40.9609 287.81 42.4309 290.46 44.0609C291.75 44.8809 293.03 45.7109 294.3 46.6109C295.57 47.5109 296.83 48.4309 298.1 49.4709L298.57 49.8609L299.16 50.4009C299.512 50.7154 299.846 51.0493 300.16 51.4009C300.48 51.7509 300.75 52.0909 301.01 52.4009C301.27 52.7109 301.55 53.0809 301.78 53.4009C302.712 54.6864 303.573 56.0217 304.36 57.4009C305.91 60.0752 307.247 62.8671 308.36 65.7509C308.566 66.2957 308.576 66.895 308.39 67.4468C308.204 67.9986 307.832 68.4688 307.339 68.7776C306.845 69.0864 306.259 69.2146 305.682 69.1404C305.104 69.0663 304.57 68.7943 304.17 68.3709L304.12 68.3109C302.12 66.1809 300.19 63.9409 298.25 61.8509C296.31 59.7609 294.34 57.6409 292.71 56.7109C290.44 55.3009 287.91 53.8909 285.4 52.5109L277.84 48.3109C276.668 47.6902 275.79 46.6294 275.4 45.3616C275.01 44.0939 275.14 42.7231 275.76 41.5509C276.381 40.3786 277.442 39.5009 278.709 39.1108C279.977 38.7207 281.348 38.8503 282.52 39.4709L282.46 39.5609Z" fill="white"/>
<path d="M310.73 70.7409L309.88 68.6109C309.88 68.6109 309.41 65.8909 307.72 65.1309L302.72 65.9209L302.89 66.3609C303.35 67.3609 303 69.1909 302.55 70.6509C302.1 72.1109 302.86 72.3009 303.5 72.0109C303.86 71.8509 304.21 71.2009 304.59 70.5109C304.776 70.8585 304.987 71.1926 305.22 71.5109L306.45 73.2009C306.707 73.5511 307.087 73.7911 307.514 73.8727C307.94 73.9543 308.382 73.8715 308.75 73.6409L310.11 72.7709C310.428 72.553 310.663 72.2334 310.776 71.8645C310.888 71.4956 310.872 71.0994 310.73 70.7409Z" fill="#157C7B"/>
<path opacity="0.8" d="M310.73 70.7409L309.88 68.6109C309.88 68.6109 309.41 65.8909 307.72 65.1309L302.72 65.9209L302.89 66.3609C303.35 67.3609 303 69.1909 302.55 70.6509C302.1 72.1109 302.86 72.3009 303.5 72.0109C303.86 71.8509 304.21 71.2009 304.59 70.5109C304.776 70.8585 304.987 71.1926 305.22 71.5109L306.45 73.2009C306.707 73.5511 307.087 73.7911 307.514 73.8727C307.94 73.9543 308.382 73.8715 308.75 73.6409L310.11 72.7709C310.428 72.553 310.663 72.2334 310.776 71.8645C310.888 71.4956 310.872 71.0994 310.73 70.7409Z" fill="white"/>
<path opacity="0.3" d="M278.24 51.0605L277.02 51.1606L269.53 69.2405C269.939 69.27 270.351 69.2363 270.75 69.1405C270.75 69.1405 280.51 65.5005 283.46 64.1405C281.48 60.0505 278.24 51.0605 278.24 51.0605Z" fill="#157C7B"/>
<path d="M264.57 55.8002C265.48 60.5264 267.17 65.0683 269.57 69.2402C273.23 67.9802 279.33 65.6002 282.29 64.2402C280.301 59.9751 278.535 55.6092 277 51.1602C273.87 51.3702 267 54.0002 264.57 55.8002Z" fill="white"/>
<path opacity="0.3" d="M272 59.7106C271.854 60.1996 271.566 60.6343 271.173 60.9596C270.779 61.2849 270.298 61.4863 269.791 61.5382C269.283 61.5901 268.771 61.4903 268.32 61.2513C267.869 61.0123 267.499 60.6449 267.257 60.1956C267.015 59.7463 266.911 59.2353 266.96 58.7272C267.008 58.2191 267.206 57.7367 267.529 57.3411C267.851 56.9456 268.284 56.6546 268.772 56.5049C269.26 56.3553 269.781 56.3538 270.27 56.5006C270.925 56.6972 271.475 57.1457 271.799 57.7476C272.124 58.3495 272.196 59.0555 272 59.7106Z" fill="#157C7B"/>
<path opacity="0.6" d="M273.91 56.2708C273.871 56.4377 273.783 56.589 273.656 56.7047C273.53 56.8204 273.371 56.8951 273.201 56.9192C273.032 56.9432 272.859 56.9153 272.705 56.8392C272.551 56.7632 272.424 56.6424 272.341 56.4929C272.257 56.3433 272.22 56.1719 272.236 56.0012C272.251 55.8305 272.318 55.6684 272.427 55.5362C272.536 55.4041 272.683 55.308 272.847 55.2606C273.012 55.2133 273.187 55.2168 273.35 55.2708C273.553 55.3356 273.723 55.4749 273.827 55.6605C273.931 55.8461 273.961 56.0642 273.91 56.2708Z" fill="#157C7B"/>
<path opacity="0.6" d="M276.15 55.4003C276.127 55.5163 276.079 55.6261 276.011 55.7227C275.943 55.8194 275.855 55.9006 275.753 55.9613C275.652 56.0221 275.538 56.0609 275.421 56.0754C275.303 56.0898 275.184 56.0796 275.071 56.0453C274.958 56.0111 274.853 55.9535 274.763 55.8764C274.673 55.7992 274.601 55.7042 274.55 55.5973C274.499 55.4905 274.471 55.3742 274.467 55.2559C274.464 55.1376 274.485 55.0199 274.53 54.9103C274.562 54.8045 274.615 54.706 274.685 54.6206C274.755 54.5351 274.841 54.4643 274.939 54.4123C275.036 54.3603 275.143 54.328 275.253 54.3174C275.363 54.3067 275.474 54.3179 275.58 54.3503C275.794 54.4151 275.974 54.5617 276.081 54.7583C276.187 54.9548 276.212 55.1855 276.15 55.4003Z" fill="#157C7B"/>
<path opacity="0.5" d="M279.29 63.1901L270.04 66.8401L269.49 65.0201L278.73 61.3701L279.29 63.1901Z" fill="#157C7B"/>
<path opacity="0.2" d="M228.26 202.17C228.239 207.992 227.676 213.801 226.58 219.52C225.4 224.66 223.567 228.42 221.08 230.8C219.922 231.949 218.546 232.857 217.034 233.47C215.521 234.083 213.902 234.389 212.27 234.37C207.13 234.37 203.207 231.566 200.5 225.96C200.024 224.952 199.62 223.913 199.29 222.85C193.574 227.759 188.251 233.109 183.37 238.85L178.06 245.11C180.918 248.006 184.215 250.432 187.83 252.3C194.057 255.52 202.23 257.133 212.35 257.14C214.13 257.14 215.85 257.09 217.52 256.99C223.643 247.93 228.709 238.2 232.62 227.99L247.47 189.27L228.26 202.17Z" fill="black"/>
<path d="M94.3901 255L111.89 272.5L160.89 226.33C144 219.88 111.16 238.19 94.3901 255Z" fill="#263238"/>
<path d="M155.42 316C149.83 310.4 137.92 298.5 137.92 298.5L184.09 249.5C190.5 266.35 172.19 299.22 155.42 316Z" fill="#263238"/>
<path d="M222.4 205.7L241.49 168.89L204.68 188C192.856 194.132 181.939 201.872 172.24 211L109.49 270.07L140.32 300.9L199.39 238.15C208.522 228.448 216.266 217.527 222.4 205.7Z" fill="#157C7B"/>
<path opacity="0.6" d="M222.4 205.7L241.49 168.89L204.68 188C192.856 194.132 181.939 201.872 172.24 211L109.49 270.07L140.32 300.9L199.39 238.15C208.522 228.448 216.266 217.527 222.4 205.7Z" fill="white"/>
<path d="M183.2 240.079C190.325 240.079 196.1 234.304 196.1 227.179C196.1 220.055 190.325 214.279 183.2 214.279C176.076 214.279 170.3 220.055 170.3 227.179C170.3 234.304 176.076 240.079 183.2 240.079Z" fill="white"/>
<path d="M183.2 235.47C187.778 235.47 191.49 231.758 191.49 227.18C191.49 222.601 187.778 218.89 183.2 218.89C178.621 218.89 174.91 222.601 174.91 227.18C174.91 231.758 178.621 235.47 183.2 235.47Z" fill="#157C7B"/>
<path opacity="0.3" d="M150.75 289.82L120.56 259.63L145.28 236.37L174.01 265.11L150.75 289.82Z" fill="#157C7B"/>
<path d="M101.22 282.62C78.62 284.45 71.13 298.92 68.57 318.15C67.27 327.96 66.69 337.89 58.46 343.63C57.9649 343.967 57.5921 344.454 57.3975 345.021C57.2029 345.587 57.1969 346.201 57.3805 346.77C57.564 347.34 57.9273 347.835 58.4157 348.181C58.9042 348.527 59.4916 348.706 60.09 348.69C90.43 347.74 104.58 332.89 106.36 326.69C105.893 329.931 105.057 333.108 103.87 336.16C103.652 336.699 103.609 337.292 103.748 337.857C103.887 338.421 104.2 338.927 104.643 339.302C105.087 339.678 105.637 339.904 106.217 339.949C106.796 339.993 107.375 339.854 107.87 339.55C116.38 334.22 127.06 324.4 127.77 308.47C121.51 299.6 101.22 282.62 101.22 282.62Z" fill="#157C7B"/>
<path opacity="0.2" d="M101.22 282.62C78.62 284.45 71.13 298.92 68.57 318.15C67.27 327.96 66.69 337.89 58.46 343.63C57.9649 343.967 57.5921 344.454 57.3975 345.021C57.2029 345.587 57.1969 346.201 57.3805 346.77C57.564 347.34 57.9273 347.835 58.4157 348.181C58.9042 348.527 59.4916 348.706 60.09 348.69C90.43 347.74 104.58 332.89 106.36 326.69C105.893 329.931 105.057 333.108 103.87 336.16C103.652 336.699 103.609 337.292 103.748 337.857C103.887 338.421 104.2 338.927 104.643 339.302C105.087 339.678 105.637 339.904 106.217 339.949C106.796 339.993 107.375 339.854 107.87 339.55C116.38 334.22 127.06 324.4 127.77 308.47C121.51 299.6 101.22 282.62 101.22 282.62Z" fill="white"/>
<path d="M131.28 315.3L95.0801 279.1L114.36 274.93L135.45 296.02L131.28 315.3Z" fill="#157C7B"/>
</g>
<defs>
<clipPath id="clip0_2226_43065">
<rect width="420.82" height="390.05" fill="white" transform="translate(0.590088)"/>
</clipPath>
</defs>
</svg>
