<svg width="19" height="19" viewBox="0 0 19 19" fill="none" xmlns="http://www.w3.org/2000/svg">
<path d="M9.20478 6.55878C7.55216 6.55878 6.2035 7.90744 6.2035 9.56006C6.2035 11.2127 7.55216 12.5613 9.20478 12.5613C10.8574 12.5613 12.2061 11.2127 12.2061 9.56006C12.2061 7.90744 10.8574 6.55878 9.20478 6.55878ZM18.2064 9.56006C18.2064 8.31722 18.2176 7.08564 18.1478 5.84505C18.078 4.40407 17.7493 3.12521 16.6956 2.0715C15.6396 1.01554 14.363 0.689065 12.922 0.619268C11.6792 0.549471 10.4476 0.560728 9.20703 0.560728C7.96419 0.560728 6.73261 0.549471 5.49202 0.619268C4.05105 0.689065 2.77218 1.01779 1.71847 2.0715C0.662508 3.12746 0.336038 4.40407 0.26624 5.84505C0.196443 7.08789 0.207701 8.31947 0.207701 9.56006C0.207701 10.8006 0.196443 12.0345 0.26624 13.2751C0.336038 14.716 0.66476 15.9949 1.71847 17.0486C2.77444 18.1046 4.05105 18.4311 5.49202 18.5008C6.73486 18.5706 7.96644 18.5594 9.20703 18.5594C10.4499 18.5594 11.6815 18.5706 12.922 18.5008C14.363 18.4311 15.6419 18.1023 16.6956 17.0486C17.7516 15.9927 18.078 14.716 18.1478 13.2751C18.2199 12.0345 18.2064 10.8029 18.2064 9.56006ZM9.20478 14.1779C6.6493 14.1779 4.58691 12.1155 4.58691 9.56006C4.58691 7.00458 6.6493 4.94219 9.20478 4.94219C11.7603 4.94219 13.8227 7.00458 13.8227 9.56006C13.8227 12.1155 11.7603 14.1779 9.20478 14.1779ZM14.0118 5.83154C13.4151 5.83154 12.9333 5.34971 12.9333 4.75306C12.9333 4.15641 13.4151 3.67458 14.0118 3.67458C14.6084 3.67458 15.0903 4.15641 15.0903 4.75306C15.0904 4.89474 15.0627 5.03506 15.0085 5.16599C14.9544 5.29691 14.875 5.41588 14.7748 5.51606C14.6746 5.61624 14.5556 5.69567 14.4247 5.74981C14.2938 5.80394 14.1535 5.83172 14.0118 5.83154Z" fill="black"/>
<mask id="mask0_2147_42457" style="mask-type:luminance" maskUnits="userSpaceOnUse" x="0" y="0" width="19" height="19">
<path d="M9.20478 6.55878C7.55216 6.55878 6.2035 7.90744 6.2035 9.56006C6.2035 11.2127 7.55216 12.5613 9.20478 12.5613C10.8574 12.5613 12.2061 11.2127 12.2061 9.56006C12.2061 7.90744 10.8574 6.55878 9.20478 6.55878ZM18.2064 9.56006C18.2064 8.31722 18.2176 7.08564 18.1478 5.84505C18.078 4.40407 17.7493 3.12521 16.6956 2.0715C15.6396 1.01554 14.363 0.689065 12.922 0.619268C11.6792 0.549471 10.4476 0.560728 9.20703 0.560728C7.96419 0.560728 6.73261 0.549471 5.49202 0.619268C4.05105 0.689065 2.77218 1.01779 1.71847 2.0715C0.662508 3.12746 0.336038 4.40407 0.26624 5.84505C0.196443 7.08789 0.207701 8.31947 0.207701 9.56006C0.207701 10.8006 0.196443 12.0345 0.26624 13.2751C0.336038 14.716 0.66476 15.9949 1.71847 17.0486C2.77444 18.1046 4.05105 18.4311 5.49202 18.5008C6.73486 18.5706 7.96644 18.5594 9.20703 18.5594C10.4499 18.5594 11.6815 18.5706 12.922 18.5008C14.363 18.4311 15.6419 18.1023 16.6956 17.0486C17.7516 15.9927 18.078 14.716 18.1478 13.2751C18.2199 12.0345 18.2064 10.8029 18.2064 9.56006ZM9.20478 14.1779C6.6493 14.1779 4.58691 12.1155 4.58691 9.56006C4.58691 7.00458 6.6493 4.94219 9.20478 4.94219C11.7603 4.94219 13.8227 7.00458 13.8227 9.56006C13.8227 12.1155 11.7603 14.1779 9.20478 14.1779ZM14.0118 5.83154C13.4151 5.83154 12.9333 5.34971 12.9333 4.75306C12.9333 4.15641 13.4151 3.67458 14.0118 3.67458C14.6084 3.67458 15.0903 4.15641 15.0903 4.75306C15.0904 4.89474 15.0627 5.03506 15.0085 5.16599C14.9544 5.29691 14.875 5.41588 14.7748 5.51606C14.6746 5.61624 14.5556 5.69567 14.4247 5.74981C14.2938 5.80394 14.1535 5.83172 14.0118 5.83154Z" fill="white"/>
</mask>
<g mask="url(#mask0_2147_42457)">
<rect x="-7.76831" y="-8.41357" width="30" height="30" fill="#157C7B"/>
</g>
</svg>
