<svg xmlns="http://www.w3.org/2000/svg" width="34" height="46" viewBox="0 0 34 46" fill="none">
  <g clip-path="url(#clip0_2242_44496)">
    <path d="M11.0283 11.5684C11.0283 11.5684 11.4385 11.1583 12.2588 10.338C13.0791 9.51764 14.6611 9.10748 17.0049 9.10748C19.3486 9.10748 21.3408 9.9278 22.9814 11.5684C24.6221 13.209 25.4424 15.2012 25.4424 17.545C25.4424 19.8887 24.6221 21.8809 22.9814 23.5215C21.3408 25.1622 19.3486 25.9825 17.0049 25.9825C14.6611 25.9825 12.6689 25.1622 11.0283 23.5215C9.3877 21.8809 8.56738 19.8887 8.56738 17.545C8.56738 15.2012 9.3877 13.209 11.0283 11.5684ZM13.0498 21.5001C13.0498 21.5001 13.3281 21.7784 13.8848 22.335C14.4414 22.8917 15.4814 23.17 17.0049 23.17C18.5283 23.17 19.8467 22.6133 20.96 21.5001C22.0732 20.3868 22.6299 19.0684 22.6299 17.545C22.6299 16.0215 22.0732 14.7032 20.96 13.5899C19.8467 12.4766 18.5283 11.92 17.0049 11.92C15.4814 11.92 14.1631 12.4766 13.0498 13.5899C11.9365 14.7032 11.3799 16.0215 11.3799 17.545C11.3799 19.0684 11.9365 20.3868 13.0498 21.5001ZM5.05176 5.59186C5.05176 5.59186 5.87207 4.77155 7.5127 3.13092C9.15332 1.4903 12.3174 0.669983 17.0049 0.669983C21.6924 0.669983 25.6768 2.31061 28.958 5.59186C32.2393 8.87311 33.8799 12.8575 33.8799 17.545C33.8799 18.5411 33.8359 19.4053 33.748 20.1378C33.6602 20.8702 33.4258 21.7344 33.0449 22.7305C32.6641 23.7266 32.3125 24.5469 31.9902 25.1915C31.668 25.836 31.0088 26.9346 30.0127 28.4874C29.0166 30.0401 28.1377 31.3438 27.376 32.3985C26.6143 33.4532 25.3398 35.2696 23.5527 37.8477C21.7656 40.4258 20.1689 42.7403 18.7627 44.7911C18.3525 45.377 17.7666 45.67 17.0049 45.67C16.2432 45.67 15.6572 45.377 15.2471 44.7911C13.8408 42.7403 12.2441 40.4258 10.457 37.8477C8.66992 35.2696 7.39551 33.4532 6.63379 32.3985C5.87207 31.3438 4.99316 30.0401 3.99707 28.4874C3.00098 26.9346 2.3418 25.836 2.01953 25.1915C1.69727 24.5469 1.3457 23.7266 0.964844 22.7305C0.583984 21.7344 0.349609 20.8702 0.261719 20.1378C0.173828 19.4053 0.129883 18.5411 0.129883 17.545C0.129883 12.8575 1.77051 8.87311 5.05176 5.59186ZM17.0049 42.3301C18.2354 40.5137 19.5977 38.5508 21.0918 36.4415C22.5859 34.3321 23.6846 32.7647 24.3877 31.7393C25.0908 30.7139 25.8965 29.5567 26.8047 28.2676C27.7129 26.9786 28.3428 26.0118 28.6943 25.3672C29.0459 24.7227 29.4268 24.0196 29.8369 23.2579C30.2471 22.4962 30.5107 21.837 30.6279 21.2803C30.7451 20.7237 30.8477 20.1524 30.9355 19.5665C31.0234 18.9805 31.0674 18.3067 31.0674 17.545C31.0674 13.6778 29.6904 10.3672 26.9365 7.61334C24.1826 4.85944 20.8721 3.48248 17.0049 3.48248C13.1377 3.48248 9.82715 4.85944 7.07324 7.61334C4.31934 10.3672 2.94238 13.6778 2.94238 17.545C2.94238 18.3067 2.98633 18.9805 3.07422 19.5665C3.16211 20.1524 3.26465 20.7237 3.38184 21.2803C3.49902 21.837 3.7627 22.4962 4.17285 23.2579C4.58301 24.0196 4.96387 24.7227 5.31543 25.3672C5.66699 26.0118 6.29688 26.9786 7.20508 28.2676C8.11328 29.5567 8.91895 30.7139 9.62207 31.7393C10.3252 32.7647 11.4238 34.3321 12.918 36.4415C14.4121 38.5508 15.7744 40.5137 17.0049 42.3301Z" fill="white"/>
  </g>
  <defs>
    <clipPath id="clip0_2242_44496">
      <rect width="33.75" height="45" fill="white" transform="matrix(1 0 0 -1 0.129883 45.67)"/>
    </clipPath>
  </defs>
</svg>