<svg width="46" height="46" viewBox="0 0 46 46" fill="none" xmlns="http://www.w3.org/2000/svg">
<path d="M41.1322 11.3937L24.2572 2.95623C23.8668 2.76116 23.4364 2.65961 23 2.65961C22.5636 2.65961 22.1332 2.76116 21.7428 2.95623L4.86781 11.3937C4.40071 11.6271 4.00781 11.986 3.73312 12.4301C3.45842 12.8741 3.31278 13.3859 3.3125 13.9081V32.9319C3.31278 33.454 3.45842 33.9658 3.73312 34.4099C4.00781 34.854 4.40071 35.2128 4.86781 35.4462L21.7428 43.8837C22.1332 44.0788 22.5636 44.1804 23 44.1804C23.4364 44.1804 23.8668 44.0788 24.2572 43.8837L41.1322 35.4462C41.5993 35.2128 41.9922 34.854 42.2669 34.4099C42.5416 33.9658 42.6872 33.454 42.6875 32.9319V13.9081C42.6872 13.3859 42.5416 12.8741 42.2669 12.4301C41.9922 11.986 41.5993 11.6271 41.1322 11.3937ZM17.0122 17.5053L32.0394 9.99029L38.1087 13.025L23 20.4472L17.0122 17.5053ZM23 5.47061L28.895 8.4181L13.8397 15.9472L7.89125 13.025L23 5.47061ZM6.125 15.2919L12.4531 18.3997V26.2325C12.4531 26.6054 12.6013 26.9631 12.865 27.2269C13.1287 27.4906 13.4864 27.6387 13.8594 27.6387C14.2323 27.6387 14.59 27.4906 14.8537 27.2269C15.1175 26.9631 15.2656 26.6054 15.2656 26.2325V19.7806L21.5938 22.8884V40.6662L6.125 32.9319V15.2919ZM24.4062 40.6662V22.8912L39.875 15.2919V32.9319L24.4062 40.6662Z" fill="#157C7B"/>
</svg>
