<svg xmlns="http://www.w3.org/2000/svg" width="46" height="46" viewBox="0 0 46 46" fill="none">
  <g clip-path="url(#clip0_2242_44532)">
    <path d="M43.8301 31.1496C44.9434 31.6183 45.5 32.468 45.5 33.6984C45.5 33.9328 45.4707 34.1379 45.4121 34.3137L43.3906 43.1906C43.2734 43.7766 42.9658 44.2746 42.4678 44.6848C41.9697 45.0949 41.3984 45.3 40.7539 45.3H40.666C35.2754 45.3 30.0898 44.2453 25.1094 42.1359C20.1289 40.0266 15.8516 37.1701 12.2773 33.5666C8.70312 29.9631 5.84668 25.6857 3.70801 20.7346C1.56934 15.7834 0.5 10.5832 0.5 5.13397V5.04608C0.5 4.63593 0.587891 4.24042 0.763672 3.85956C0.939453 3.4787 1.18848 3.17108 1.51074 2.93671C1.83301 2.70233 2.19922 2.52655 2.60938 2.40936L11.4863 0.387878C11.7207 0.329285 11.9258 0.299988 12.1016 0.299988C13.332 0.299988 14.1816 0.856628 14.6504 1.96991L18.6934 11.4621C18.8691 11.8137 18.957 12.1945 18.957 12.6047C18.957 13.425 18.6055 14.1281 17.9023 14.7141L13.1562 18.5812C16.2617 24.8508 20.9492 29.5383 27.2188 32.6437L31.0859 27.8976C31.6719 27.1945 32.375 26.843 33.1953 26.843C33.6055 26.843 33.9863 26.9308 34.3379 27.1066L43.8301 31.1496ZM40.666 42.4875L42.6875 33.6984L33.1953 29.6555L28.0098 36.0715C23.4395 33.9621 19.7773 31.5305 17.0234 28.7766C14.2695 26.0226 11.8379 22.3605 9.72852 17.7902L16.1445 12.6047L12.1016 3.11249L3.3125 5.13397C3.3125 9.17694 3.94238 13.1027 5.20215 16.9113C6.46191 20.7199 8.24902 24.1476 10.5635 27.1945C12.8779 30.2414 15.5586 32.9221 18.6055 35.2365C21.6523 37.551 25.0801 39.3381 28.8887 40.5978C32.6973 41.8576 36.623 42.4875 40.666 42.4875Z" fill="white"/>
  </g>
  <defs>
    <clipPath id="clip0_2242_44532">
      <rect width="45" height="45" fill="white" transform="matrix(1 0 0 -1 0.5 45.3)"/>
    </clipPath>
  </defs>
</svg>