<svg xmlns="http://www.w3.org/2000/svg" width="58" height="46" viewBox="0 0 58 46" fill="none">
  <g clip-path="url(#clip0_2242_44517)">
    <path d="M52.9111 8.60748C54.083 8.60748 55.0791 9.01764 55.8994 9.83795C56.7197 10.6583 57.1299 11.6544 57.1299 12.8262V32.5137C57.1299 33.6856 56.7197 34.6817 55.8994 35.502C55.0791 36.3223 54.083 36.7325 52.9111 36.7325H37.4424V33.92H52.9111C53.3213 33.92 53.6582 33.7881 53.9219 33.5245C54.1855 33.2608 54.3174 32.9239 54.3174 32.5137V12.8262C54.3174 12.4161 54.1855 12.0792 53.9219 11.8155C53.6582 11.5518 53.3213 11.42 52.9111 11.42H21.9736C21.5635 11.42 21.2266 11.5518 20.9629 11.8155C20.6992 12.0792 20.5674 12.4161 20.5674 12.8262V14.2325H17.7549V12.8262C17.7549 11.6544 18.165 10.6583 18.9854 9.83795C19.8057 9.01764 20.8018 8.60748 21.9736 8.60748H52.9111ZM9.31738 4.38873V14.2325H6.50488V4.38873C6.50488 3.21686 6.91504 2.22076 7.73535 1.40045C8.55566 0.580139 9.55176 0.169983 10.7236 0.169983H36.0361C37.208 0.169983 38.2041 0.580139 39.0244 1.40045C39.8447 2.22076 40.2549 3.21686 40.2549 4.38873V5.79498H37.4424V4.38873C37.4424 3.97858 37.3105 3.64166 37.0469 3.37799C36.7832 3.11432 36.4463 2.98248 36.0361 2.98248H10.7236C10.3135 2.98248 9.97656 3.11432 9.71289 3.37799C9.44922 3.64166 9.31738 3.97858 9.31738 4.38873ZM50.0986 22.67H44.4736C44.0635 22.67 43.7266 22.5381 43.4629 22.2745C43.1992 22.0108 43.0674 21.6739 43.0674 21.2637V15.6387C43.0674 15.2286 43.1992 14.8917 43.4629 14.628C43.7266 14.3643 44.0635 14.2325 44.4736 14.2325H50.0986C50.5088 14.2325 50.8457 14.3643 51.1094 14.628C51.373 14.8917 51.5049 15.2286 51.5049 15.6387V21.2637C51.5049 21.6739 51.373 22.0108 51.1094 22.2745C50.8457 22.5381 50.5088 22.67 50.0986 22.67ZM45.8799 17.045V19.8575H48.6924V17.045H45.8799ZM30.4111 17.045C31.583 17.045 32.5791 17.4551 33.3994 18.2755C34.2197 19.0958 34.6299 20.0919 34.6299 21.2637V40.9512C34.6299 42.1231 34.2197 43.1192 33.3994 43.9395C32.5791 44.7598 31.583 45.17 30.4111 45.17H5.09863C3.92676 45.17 2.93066 44.7598 2.11035 43.9395C1.29004 43.1192 0.879883 42.1231 0.879883 40.9512V21.2637C0.879883 20.0919 1.29004 19.0958 2.11035 18.2755C2.93066 17.4551 3.92676 17.045 5.09863 17.045H30.4111ZM31.8174 40.9512V27.7676C28.0674 30.5801 25.2549 32.6309 23.3799 33.92C20.8604 35.795 18.9854 36.7325 17.7549 36.7325C16.5244 36.7325 14.6494 35.795 12.1299 33.92C10.2549 32.6309 7.44238 30.5801 3.69238 27.7676V40.9512C3.69238 41.3614 3.82422 41.6983 4.08789 41.962C4.35156 42.2256 4.68848 42.3575 5.09863 42.3575H30.4111C30.8213 42.3575 31.1582 42.2256 31.4219 41.962C31.6855 41.6983 31.8174 41.3614 31.8174 40.9512ZM31.8174 24.3399V21.2637C31.8174 20.8536 31.6855 20.5167 31.4219 20.253C31.1582 19.9893 30.8213 19.8575 30.4111 19.8575H5.09863C4.68848 19.8575 4.35156 19.9893 4.08789 20.253C3.82422 20.5167 3.69238 20.8536 3.69238 21.2637V24.0762C4.10254 24.3692 4.64453 24.7794 5.31836 25.3067C5.99219 25.834 6.97363 26.5958 8.2627 27.5919C9.55176 28.588 11.3975 29.9356 13.7998 31.6348C13.8584 31.6934 14.1807 31.9571 14.7666 32.4258C15.3525 32.8946 15.8945 33.2608 16.3926 33.5245C16.8906 33.7881 17.3447 33.92 17.7549 33.92C18.165 33.92 18.6338 33.7735 19.1611 33.4805C19.6885 33.1876 20.1865 32.8799 20.6553 32.5577C21.124 32.2354 21.4756 32.045 21.71 31.9864C24.1123 30.2286 25.958 28.8663 27.2471 27.8995C28.5361 26.9327 29.5176 26.1856 30.1914 25.6583C30.8652 25.1309 31.4072 24.6915 31.8174 24.3399Z" fill="white"/>
  </g>
  <defs>
    <clipPath id="clip0_2242_44517">
      <rect width="56.25" height="45" fill="white" transform="matrix(1 0 0 -1 0.879883 45.17)"/>
    </clipPath>
  </defs>
</svg>