<svg width="46" height="46" viewBox="0 0 46 46" fill="none" xmlns="http://www.w3.org/2000/svg">
<g clip-path="url(#clip0_2243_44721)">
<path d="M35.7222 6.54498L40.4243 20.6075H42.6875V23.42H42.2041C41.9111 24.2549 41.501 25.0167 40.9736 25.7051C40.4463 26.3936 39.8311 26.9869 39.1279 27.4849C38.4248 27.983 37.6631 28.3638 36.8428 28.6275C36.0225 28.8912 35.1582 29.0303 34.25 29.045C33.3564 29.045 32.4995 28.9131 31.6792 28.6495C30.8589 28.3858 30.0972 28.0049 29.394 27.5069C28.6909 27.0089 28.0757 26.4156 27.5483 25.7271C27.021 25.0386 26.6035 24.2696 26.2959 23.42H25.8125V20.6075H28.0757L32.7778 6.54498H23V37.5264C25.4463 37.6876 27.7607 38.2369 29.9434 39.1744C32.126 40.1119 34.1255 41.4229 35.9419 43.1075H39.875V45.92H3.3125V43.1075H7.24561C9.04736 41.4376 11.0396 40.1339 13.2222 39.1964C15.4048 38.2589 17.7266 37.7022 20.1875 37.5264V6.54498H10.4097L15.1118 20.6075H17.375V23.42H16.8916C16.5986 24.2549 16.1885 25.0167 15.6611 25.7051C15.1338 26.3936 14.5186 26.9869 13.8154 27.4849C13.1123 27.983 12.3506 28.3638 11.5303 28.6275C10.71 28.8912 9.8457 29.0303 8.9375 29.045C8.04395 29.045 7.18701 28.9131 6.3667 28.6495C5.54639 28.3858 4.78467 28.0049 4.08154 27.5069C3.37842 27.0089 2.76318 26.4156 2.23584 25.7271C1.7085 25.0386 1.29102 24.2696 0.983398 23.42H0.5V20.6075H2.76318L7.46533 6.54498H0.5V3.73248H20.1875V0.919983H23V3.73248H42.6875V6.54498H35.7222ZM8.9375 10.9835L5.72949 20.6075H12.1455L8.9375 10.9835ZM8.9375 26.2325C9.94824 26.2325 10.8857 25.9835 11.75 25.4854C12.6143 24.9874 13.3027 24.2989 13.8154 23.42H4.05957C4.57227 24.2989 5.26074 24.9874 6.125 25.4854C6.98926 25.9835 7.92676 26.2325 8.9375 26.2325ZM31.3496 43.1075C29.8848 42.1846 28.3247 41.4888 26.6694 41.0201C25.0142 40.5513 23.3223 40.3096 21.5938 40.295C19.8652 40.295 18.1733 40.5294 16.5181 40.9981C14.8628 41.4669 13.3027 42.17 11.8379 43.1075H31.3496ZM34.25 10.9835L31.042 20.6075H37.458L34.25 10.9835ZM34.25 26.2325C35.2607 26.2325 36.1982 25.9835 37.0625 25.4854C37.9268 24.9874 38.6152 24.2989 39.1279 23.42H29.3721C29.8848 24.2989 30.5732 24.9874 31.4375 25.4854C32.3018 25.9835 33.2393 26.2325 34.25 26.2325Z" fill="#157C7B"/>
</g>
<defs>
<clipPath id="clip0_2243_44721">
<rect width="45" height="45" fill="white" transform="translate(0.5 0.919983)"/>
</clipPath>
</defs>
</svg>
