<svg width="46" height="46" viewBox="0 0 46 46" fill="none" xmlns="http://www.w3.org/2000/svg">
<path d="M12.5543 5.44435C12.7907 5.16222 12.9071 4.79864 12.8784 4.43168C12.8497 4.06472 12.6783 3.72363 12.401 3.48163C12.1236 3.23963 11.7625 3.11602 11.395 3.13732C11.0276 3.15863 10.6831 3.32317 10.4356 3.5956L8.01308 6.3706C6.63942 7.94479 5.8629 9.9518 5.81933 12.0406L5.71246 17.1387C5.70864 17.3234 5.74124 17.507 5.80838 17.6791C5.87553 17.8512 5.97591 18.0083 6.10379 18.1416C6.23167 18.2749 6.38456 18.3817 6.55371 18.4559C6.72286 18.5301 6.90497 18.5702 7.08965 18.574C7.27432 18.5779 7.45793 18.5453 7.63001 18.4781C7.80208 18.411 7.95925 18.3106 8.09253 18.1827C8.22581 18.0548 8.3326 17.9019 8.40679 17.7328C8.48099 17.5636 8.52114 17.3815 8.52496 17.1969L8.62996 12.1006C8.66004 10.6713 9.19166 9.29815 10.1318 8.22123L12.5543 5.44435Z" fill="#157C7B"/>
<path fill-rule="evenodd" clip-rule="evenodd" d="M12.1944 15.3575C12.3203 13.3515 13.206 11.4689 14.6711 10.0929C16.1363 8.71697 18.0707 7.9511 20.0807 7.95123H21.125V6.54498C21.125 6.0477 21.3226 5.57079 21.6742 5.21916C22.0258 4.86753 22.5027 4.66998 23 4.66998C23.4973 4.66998 23.9742 4.86753 24.3259 5.21916C24.6775 5.57079 24.875 6.0477 24.875 6.54498V7.95123H25.9194C27.9293 7.9511 29.8638 8.71697 31.3289 10.0929C32.7941 11.4689 33.6797 13.3515 33.8057 15.3575L34.22 21.9837C34.3802 24.5098 35.2283 26.9438 36.6725 29.0225C36.9713 29.452 37.1539 29.9515 37.2025 30.4724C37.2511 30.9934 37.164 31.5181 36.9498 31.9954C36.7356 32.4728 36.4015 32.8865 35.98 33.1965C35.5585 33.5065 35.0639 33.7021 34.5444 33.7644L28.1563 34.5294V36.545C28.1563 37.9125 27.613 39.224 26.646 40.191C25.6791 41.158 24.3676 41.7012 23 41.7012C21.6325 41.7012 20.321 41.158 19.354 40.191C18.387 39.224 17.8438 37.9125 17.8438 36.545V34.5294L11.4557 33.7625C10.9365 33.7001 10.4422 33.5044 10.021 33.1946C9.59975 32.8847 9.26581 32.4711 9.05163 31.9941C8.83744 31.517 8.75029 30.9927 8.79863 30.472C8.84697 29.9513 9.02917 29.452 9.32753 29.0225C10.7717 26.9438 11.6198 24.5098 11.78 21.9837L12.1944 15.3575ZM20.0807 10.7637C18.7861 10.7636 17.5402 11.2568 16.5965 12.143C15.6528 13.0292 15.0824 14.2417 15.0013 15.5337L14.5888 22.16C14.396 25.1989 13.3754 28.1271 11.6375 30.6275C11.6159 30.6585 11.6027 30.6947 11.5992 30.7323C11.5956 30.77 11.6019 30.808 11.6174 30.8425C11.6329 30.8771 11.657 30.907 11.6875 30.9294C11.7179 30.9519 11.7537 30.9661 11.7913 30.9706L18.7982 31.8125C21.59 32.1462 24.41 32.1462 27.2019 31.8125L34.2088 30.9706C34.2464 30.9661 34.2821 30.9519 34.3126 30.9294C34.3431 30.907 34.3672 30.8771 34.3827 30.8425C34.3982 30.808 34.4044 30.77 34.4009 30.7323C34.3974 30.6947 34.3841 30.6585 34.3625 30.6275C32.6253 28.1269 31.6054 25.1987 31.4132 22.16L30.9988 15.5337C30.9177 14.2417 30.3472 13.0292 29.4036 12.143C28.4599 11.2568 27.214 10.7636 25.9194 10.7637H20.0807ZM23 38.8887C21.7063 38.8887 20.6563 37.8387 20.6563 36.545V35.1387H25.3438V36.545C25.3438 37.8387 24.2938 38.8887 23 38.8887Z" fill="#157C7B"/>
<path d="M33.5806 3.46061C33.2997 3.70582 33.1277 4.05254 33.1024 4.42454C33.0771 4.79654 33.2005 5.16337 33.4456 5.44437L35.8681 8.21936C36.808 9.29705 37.339 10.6709 37.3681 12.1006L37.475 17.195C37.4827 17.568 37.6382 17.9226 37.9074 18.1808C38.1766 18.4391 38.5373 18.5799 38.9103 18.5722C39.2832 18.5645 39.6379 18.4089 39.8961 18.1397C40.1544 17.8706 40.2952 17.5098 40.2875 17.1369L40.1806 12.0406C40.137 9.95181 39.3605 7.9448 37.9869 6.37061L35.5644 3.59561C35.3191 3.31472 34.9724 3.1427 34.6004 3.11738C34.2284 3.09207 33.8616 3.21553 33.5806 3.46061Z" fill="#157C7B"/>
</svg>
