<svg width="16" height="13" viewBox="0 0 16 13" fill="none" xmlns="http://www.w3.org/2000/svg">
<path fill-rule="evenodd" clip-rule="evenodd" d="M7.75778 3.75225L7.78926 4.27128L7.26465 4.20773C5.35507 3.9641 3.68681 3.13788 2.27037 1.75026L1.57788 1.06174L1.39952 1.57019C1.0218 2.70359 1.26312 3.90054 2.05003 4.70557C2.46972 5.15046 2.37529 5.21402 1.65133 4.9492C1.39952 4.86446 1.17918 4.80091 1.1582 4.83268C1.08475 4.90683 1.33656 5.87075 1.53591 6.25208C1.80871 6.78171 2.3648 7.30074 2.97334 7.60793L3.48746 7.85155L2.87891 7.86215C2.29135 7.86215 2.27037 7.87274 2.33332 8.09518C2.54316 8.7837 3.37205 9.51458 4.29536 9.83236L4.94588 10.0548L4.3793 10.3938C3.53992 10.881 2.55366 11.1564 1.56739 11.1776C1.09524 11.1882 0.707031 11.2306 0.707031 11.2623C0.707031 11.3683 1.98708 11.9615 2.73202 12.1945C4.96686 12.883 7.62138 12.5864 9.6149 11.4106C11.0313 10.5738 12.4478 8.91081 13.1088 7.30074C13.4655 6.44275 13.8223 4.87505 13.8223 4.12298C13.8223 3.63573 13.8537 3.57217 14.4413 2.98958C14.7875 2.65062 15.1128 2.27989 15.1758 2.17396C15.2807 1.9727 15.2702 1.9727 14.7351 2.15277C13.8433 2.47055 13.7173 2.42818 14.158 1.95152C14.4833 1.61256 14.8715 0.998189 14.8715 0.818116C14.8715 0.786339 14.7141 0.839301 14.5357 0.934634C14.3469 1.04056 13.9272 1.19945 13.6124 1.29478L13.0458 1.47485L12.5317 1.1253C12.2484 0.934634 11.8497 0.722784 11.6399 0.659228C11.1048 0.510933 10.2864 0.532118 9.80376 0.701599C8.49224 1.17826 7.66335 2.407 7.75778 3.75225Z" fill="#157C7B"/>
<mask id="mask0_2147_42442" style="mask-type:luminance" maskUnits="userSpaceOnUse" x="0" y="0" width="16" height="13">
<path fill-rule="evenodd" clip-rule="evenodd" d="M7.75778 3.75225L7.78926 4.27128L7.26465 4.20773C5.35507 3.9641 3.68681 3.13788 2.27037 1.75026L1.57788 1.06174L1.39952 1.57019C1.0218 2.70359 1.26312 3.90054 2.05003 4.70557C2.46972 5.15046 2.37529 5.21402 1.65133 4.9492C1.39952 4.86446 1.17918 4.80091 1.1582 4.83268C1.08475 4.90683 1.33656 5.87075 1.53591 6.25208C1.80871 6.78171 2.3648 7.30074 2.97334 7.60793L3.48746 7.85155L2.87891 7.86215C2.29135 7.86215 2.27037 7.87274 2.33332 8.09518C2.54316 8.7837 3.37205 9.51458 4.29536 9.83236L4.94588 10.0548L4.3793 10.3938C3.53992 10.881 2.55366 11.1564 1.56739 11.1776C1.09524 11.1882 0.707031 11.2306 0.707031 11.2623C0.707031 11.3683 1.98708 11.9615 2.73202 12.1945C4.96686 12.883 7.62138 12.5864 9.6149 11.4106C11.0313 10.5738 12.4478 8.91081 13.1088 7.30074C13.4655 6.44275 13.8223 4.87505 13.8223 4.12298C13.8223 3.63573 13.8537 3.57217 14.4413 2.98958C14.7875 2.65062 15.1128 2.27989 15.1758 2.17396C15.2807 1.9727 15.2702 1.9727 14.7351 2.15277C13.8433 2.47055 13.7173 2.42818 14.158 1.95152C14.4833 1.61256 14.8715 0.998189 14.8715 0.818116C14.8715 0.786339 14.7141 0.839301 14.5357 0.934634C14.3469 1.04056 13.9272 1.19945 13.6124 1.29478L13.0458 1.47485L12.5317 1.1253C12.2484 0.934634 11.8497 0.722784 11.6399 0.659228C11.1048 0.510933 10.2864 0.532118 9.80376 0.701599C8.49224 1.17826 7.66335 2.407 7.75778 3.75225Z" fill="white"/>
</mask>
<g mask="url(#mask0_2147_42442)">
<rect x="-6.79297" y="-8.43994" width="30" height="30" fill="#157C7B"/>
</g>
</svg>
