<svg width="19" height="19" viewBox="0 0 19 19" fill="none" xmlns="http://www.w3.org/2000/svg">
<path d="M0.210643 18.56L1.42744 14.0888C0.625667 12.7144 0.20443 11.1512 0.207043 9.56005C0.207043 4.58936 4.23634 0.560059 9.20704 0.560059C14.1777 0.560059 18.207 4.58936 18.207 9.56005C18.207 14.5307 14.1777 18.56 9.20704 18.56C7.61654 18.5626 6.05403 18.1417 4.68004 17.3405L0.210643 18.56ZM5.95894 5.33726C5.84272 5.34447 5.72915 5.37508 5.62504 5.42726C5.52741 5.48254 5.43829 5.55166 5.36044 5.63246C5.25244 5.73416 5.19124 5.82235 5.12554 5.90786C4.79291 6.34075 4.61399 6.87213 4.61704 7.41805C4.61884 7.85905 4.73404 8.28835 4.91404 8.68975C5.28214 9.50155 5.88784 10.3611 6.68794 11.1576C6.88054 11.3493 7.06864 11.5419 7.27114 11.721C8.26419 12.5953 9.44757 13.2258 10.7271 13.5624L11.2392 13.6406C11.4057 13.6496 11.5722 13.637 11.7396 13.6289C12.0017 13.6154 12.2577 13.5444 12.4893 13.4211C12.6072 13.3603 12.7222 13.2943 12.834 13.223C12.834 13.223 12.8727 13.1978 12.9465 13.142C13.068 13.052 13.1427 12.9882 13.2435 12.8829C13.3182 12.8055 13.383 12.7146 13.4325 12.6111C13.5027 12.4644 13.5729 12.1845 13.6017 11.9514C13.6233 11.7732 13.617 11.676 13.6143 11.6157C13.6107 11.5194 13.5306 11.4195 13.4433 11.3772L12.9195 11.1423C12.9195 11.1423 12.1365 10.8012 11.6586 10.5834C11.6082 10.5614 11.5542 10.5489 11.4993 10.5465C11.4378 10.5401 11.3755 10.5471 11.3169 10.5668C11.2582 10.5865 11.2044 10.6185 11.1591 10.6608V10.659C11.1546 10.659 11.0943 10.7103 10.4436 11.4987C10.4063 11.5488 10.3548 11.5868 10.2959 11.6076C10.2369 11.6284 10.173 11.6312 10.1124 11.6157C10.0538 11.6 9.99635 11.5801 9.94054 11.5563C9.82894 11.5095 9.79024 11.4915 9.71374 11.4582L9.70924 11.4564C9.19436 11.2316 8.71764 10.9279 8.29624 10.5564C8.18284 10.4574 8.07754 10.3494 7.96954 10.245C7.61546 9.90587 7.30688 9.52226 7.05154 9.10375L6.99844 9.01825C6.9603 8.9608 6.92946 8.89882 6.90664 8.83375C6.87244 8.70145 6.96154 8.59525 6.96154 8.59525C6.96154 8.59525 7.18024 8.35585 7.28194 8.22625C7.36662 8.11854 7.44563 8.00649 7.51864 7.89055C7.62484 7.71955 7.65814 7.54405 7.60234 7.40815C7.35034 6.79255 7.08934 6.17965 6.82114 5.57126C6.76804 5.45065 6.61054 5.36425 6.46744 5.34716C6.41884 5.34175 6.37024 5.33636 6.32164 5.33276C6.20077 5.32675 6.07966 5.32795 5.95894 5.33636V5.33726Z" fill="black"/>
<mask id="mask0_2147_42449" style="mask-type:luminance" maskUnits="userSpaceOnUse" x="0" y="0" width="19" height="19">
<path d="M0.210643 18.56L1.42744 14.0888C0.625667 12.7144 0.20443 11.1512 0.207043 9.56005C0.207043 4.58936 4.23634 0.560059 9.20704 0.560059C14.1777 0.560059 18.207 4.58936 18.207 9.56005C18.207 14.5307 14.1777 18.56 9.20704 18.56C7.61654 18.5626 6.05403 18.1417 4.68004 17.3405L0.210643 18.56ZM5.95894 5.33726C5.84272 5.34447 5.72915 5.37508 5.62504 5.42726C5.52741 5.48254 5.43829 5.55166 5.36044 5.63246C5.25244 5.73416 5.19124 5.82235 5.12554 5.90786C4.79291 6.34075 4.61399 6.87213 4.61704 7.41805C4.61884 7.85905 4.73404 8.28835 4.91404 8.68975C5.28214 9.50155 5.88784 10.3611 6.68794 11.1576C6.88054 11.3493 7.06864 11.5419 7.27114 11.721C8.26419 12.5953 9.44757 13.2258 10.7271 13.5624L11.2392 13.6406C11.4057 13.6496 11.5722 13.637 11.7396 13.6289C12.0017 13.6154 12.2577 13.5444 12.4893 13.4211C12.6072 13.3603 12.7222 13.2943 12.834 13.223C12.834 13.223 12.8727 13.1978 12.9465 13.142C13.068 13.052 13.1427 12.9882 13.2435 12.8829C13.3182 12.8055 13.383 12.7146 13.4325 12.6111C13.5027 12.4644 13.5729 12.1845 13.6017 11.9514C13.6233 11.7732 13.617 11.676 13.6143 11.6157C13.6107 11.5194 13.5306 11.4195 13.4433 11.3772L12.9195 11.1423C12.9195 11.1423 12.1365 10.8012 11.6586 10.5834C11.6082 10.5614 11.5542 10.5489 11.4993 10.5465C11.4378 10.5401 11.3755 10.5471 11.3169 10.5668C11.2582 10.5865 11.2044 10.6185 11.1591 10.6608V10.659C11.1546 10.659 11.0943 10.7103 10.4436 11.4987C10.4063 11.5488 10.3548 11.5868 10.2959 11.6076C10.2369 11.6284 10.173 11.6312 10.1124 11.6157C10.0538 11.6 9.99635 11.5801 9.94054 11.5563C9.82894 11.5095 9.79024 11.4915 9.71374 11.4582L9.70924 11.4564C9.19436 11.2316 8.71764 10.9279 8.29624 10.5564C8.18284 10.4574 8.07754 10.3494 7.96954 10.245C7.61546 9.90587 7.30688 9.52226 7.05154 9.10375L6.99844 9.01825C6.9603 8.9608 6.92946 8.89882 6.90664 8.83375C6.87244 8.70145 6.96154 8.59525 6.96154 8.59525C6.96154 8.59525 7.18024 8.35585 7.28194 8.22625C7.36662 8.11854 7.44563 8.00649 7.51864 7.89055C7.62484 7.71955 7.65814 7.54405 7.60234 7.40815C7.35034 6.79255 7.08934 6.17965 6.82114 5.57126C6.76804 5.45065 6.61054 5.36425 6.46744 5.34716C6.41884 5.34175 6.37024 5.33636 6.32164 5.33276C6.20077 5.32675 6.07966 5.32795 5.95894 5.33636V5.33726Z" fill="white"/>
</mask>
<g mask="url(#mask0_2147_42449)">
<rect x="-4.79297" y="-4.43994" width="30" height="30" fill="#157C7B"/>
</g>
</svg>
