<svg width="22" height="16" viewBox="0 0 22 16" fill="none" xmlns="http://www.w3.org/2000/svg">
<path d="M5.99999 16C5.16665 16 4.45832 15.7083 3.87499 15.125C3.29165 14.5417 2.99999 13.8333 2.99999 13H1.72499C1.44165 13 1.20399 12.904 1.01199 12.712C0.819987 12.52 0.724321 12.2827 0.724987 12C0.725654 11.7173 0.821654 11.48 1.01299 11.288C1.20432 11.096 1.44165 11 1.72499 11H3.77499C4.05832 10.6833 4.39165 10.4377 4.77499 10.263C5.15832 10.0883 5.56665 10.0007 5.99999 10C6.43332 9.99933 6.84165 10.087 7.22499 10.263C7.60832 10.439 7.94165 10.6847 8.22499 11H12.4L14.5 2H6.74999C6.46665 2 6.22932 1.904 6.03799 1.712C5.84665 1.52 5.75065 1.28267 5.74999 1C5.74932 0.717333 5.84532 0.48 6.03799 0.288C6.23065 0.0960001 6.46799 0 6.74999 0H15.75C16.0833 0 16.35 0.125 16.55 0.375C16.75 0.625 16.8083 0.908333 16.725 1.225L16.075 4H18C18.3167 4 18.6167 4.071 18.9 4.213C19.1833 4.355 19.4167 4.55067 19.6 4.8L21.475 7.275C21.6583 7.50833 21.775 7.76267 21.825 8.038C21.875 8.31333 21.875 8.59233 21.825 8.875L21.15 12.2C21.1 12.4333 20.9833 12.625 20.8 12.775C20.6167 12.925 20.4083 13 20.175 13H19C19 13.8333 18.7083 14.5417 18.125 15.125C17.5417 15.7083 16.8333 16 16 16C15.1667 16 14.4583 15.7083 13.875 15.125C13.2917 14.5417 13 13.8333 13 13H8.99999C8.99999 13.8333 8.70832 14.5417 8.12499 15.125C7.54165 15.7083 6.83332 16 5.99999 16ZM14.925 9H19.75L19.85 8.475L18 6H15.625L14.925 9ZM14.5 2L12.4 11L12.45 10.825L14.5 2ZM2.49999 6H0.949987C0.749987 6 0.604321 5.91267 0.512987 5.738C0.421654 5.56333 0.433987 5.39233 0.549987 5.225L3.04999 1.65C3.13332 1.55 3.22932 1.51667 3.33799 1.55C3.44665 1.58333 3.50065 1.66667 3.49999 1.8V4H5.04999C5.24999 4 5.39565 4.08767 5.48699 4.263C5.57832 4.43833 5.56599 4.609 5.44999 4.775L2.94999 8.35C2.86665 8.45 2.77065 8.48333 2.66199 8.45C2.55332 8.41667 2.49932 8.33333 2.49999 8.2V6ZM5.99999 14C6.28332 14 6.52099 13.904 6.71299 13.712C6.90499 13.52 7.00065 13.2827 6.99999 13C6.99932 12.7173 6.90332 12.48 6.71199 12.288C6.52065 12.096 6.28332 12 5.99999 12C5.71665 12 5.47932 12.096 5.28799 12.288C5.09665 12.48 5.00065 12.7173 4.99999 13C4.99932 13.2827 5.09532 13.5203 5.28799 13.713C5.48065 13.9057 5.71799 14.0013 5.99999 14ZM16 14C16.2833 14 16.521 13.904 16.713 13.712C16.905 13.52 17.0007 13.2827 17 13C16.9993 12.7173 16.9033 12.48 16.712 12.288C16.5207 12.096 16.2833 12 16 12C15.7167 12 15.4793 12.096 15.288 12.288C15.0967 12.48 15.0007 12.7173 15 13C14.9993 13.2827 15.0953 13.5203 15.288 13.713C15.4807 13.9057 15.718 14.0013 16 14Z" fill="white"/>
</svg>
