<svg width="32" height="33" viewBox="0 0 32 33" fill="none" xmlns="http://www.w3.org/2000/svg">
<g clip-path="url(#clip0_1676_3884)">
<path d="M24.5 0.5H7.5C3.35786 0.5 0 3.85786 0 8V25C0 29.1421 3.35786 32.5 7.5 32.5H24.5C28.6421 32.5 32 29.1421 32 25V8C32 3.85786 28.6421 0.5 24.5 0.5Z" fill="url(#paint0_radial_1676_3884)"/>
<path d="M24.5 0.5H7.5C3.35786 0.5 0 3.85786 0 8V25C0 29.1421 3.35786 32.5 7.5 32.5H24.5C28.6421 32.5 32 29.1421 32 25V8C32 3.85786 28.6421 0.5 24.5 0.5Z" fill="url(#paint1_radial_1676_3884)"/>
<path d="M16.0011 4C12.6064 4 12.1803 4.01488 10.847 4.0755C9.51625 4.1365 8.60787 4.34712 7.81313 4.65625C6.99088 4.9755 6.2935 5.40262 5.59875 6.09762C4.90338 6.7925 4.47625 7.48987 4.156 8.31175C3.846 9.10675 3.63512 10.0155 3.57525 11.3456C3.51562 12.679 3.5 13.1053 3.5 16.5001C3.5 19.895 3.515 20.3197 3.5755 21.653C3.63675 22.9837 3.84738 23.8921 4.15625 24.6869C4.47575 25.5091 4.90288 26.2065 5.59788 26.9013C6.2925 27.5966 6.98988 28.0247 7.8115 28.344C8.60687 28.6531 9.51537 28.8637 10.8459 28.9247C12.1792 28.9854 12.605 29.0002 15.9996 29.0002C19.3948 29.0002 19.8195 28.9854 21.1528 28.9247C22.4835 28.8637 23.3929 28.6531 24.1882 28.344C25.0101 28.0247 25.7065 27.5966 26.401 26.9013C27.0964 26.2065 27.5234 25.5091 27.8438 24.6873C28.151 23.8921 28.362 22.9835 28.4245 21.6532C28.4844 20.32 28.5 19.895 28.5 16.5001C28.5 13.1053 28.4844 12.6792 28.4245 11.3459C28.362 10.0151 28.151 9.10688 27.8438 8.31213C27.5234 7.48988 27.0964 6.7925 26.401 6.09762C25.7057 5.40237 25.0104 4.97525 24.1875 4.65637C23.3906 4.34712 22.4817 4.13638 21.151 4.0755C19.8176 4.01488 19.3931 4 15.9972 4H16.0011ZM14.8798 6.25262C15.2126 6.25213 15.584 6.25262 16.0011 6.25262C19.3388 6.25262 19.7342 6.26463 21.0522 6.3245C22.271 6.38025 22.9325 6.58388 23.3731 6.755C23.9565 6.9815 24.3724 7.25238 24.8096 7.69C25.2471 8.1275 25.5179 8.54412 25.745 9.1275C25.9161 9.5675 26.12 10.229 26.1755 11.4478C26.2354 12.7655 26.2484 13.1612 26.2484 16.4972C26.2484 19.8333 26.2354 20.2291 26.1755 21.5467C26.1198 22.7655 25.9161 23.427 25.745 23.8671C25.5185 24.4505 25.2471 24.8659 24.8096 25.3031C24.3721 25.7406 23.9568 26.0114 23.3731 26.238C22.933 26.4099 22.271 26.613 21.0522 26.6688C19.7345 26.7286 19.3388 26.7416 16.0011 26.7416C12.6634 26.7416 12.2677 26.7286 10.9501 26.6688C9.73137 26.6125 9.06987 26.4089 8.62887 26.2377C8.04562 26.0111 7.62887 25.7404 7.19137 25.3029C6.75387 24.8654 6.48312 24.4498 6.256 23.8661C6.08488 23.426 5.881 22.7645 5.8255 21.5457C5.76562 20.228 5.75362 19.8323 5.75362 16.4941C5.75362 13.156 5.76562 12.7624 5.8255 11.4446C5.88125 10.2259 6.08488 9.56437 6.256 9.12375C6.48263 8.54037 6.75388 8.12375 7.1915 7.68625C7.62913 7.24875 8.04562 6.97787 8.629 6.75087C9.06962 6.579 9.73137 6.37587 10.9501 6.31987C12.1032 6.26775 12.5501 6.25212 14.8798 6.2495V6.25262ZM22.6736 8.32812C21.8455 8.32812 21.1736 8.99938 21.1736 9.82763C21.1736 10.6558 21.8455 11.3276 22.6736 11.3276C23.5018 11.3276 24.1736 10.6558 24.1736 9.82763C24.1736 8.9995 23.5018 8.32762 22.6736 8.32762V8.32812ZM16.0011 10.0808C12.4561 10.0808 9.58187 12.955 9.58187 16.5001C9.58187 20.0452 12.4561 22.9181 16.0011 22.9181C19.5462 22.9181 22.4195 20.0452 22.4195 16.5001C22.4195 12.9551 19.546 10.0808 16.0009 10.0808H16.0011ZM16.0011 12.3334C18.3022 12.3334 20.1679 14.1988 20.1679 16.5001C20.1679 18.8013 18.3022 20.6669 16.0011 20.6669C13.7 20.6669 11.8345 18.8013 11.8345 16.5001C11.8345 14.1988 13.6999 12.3334 16.0011 12.3334Z" fill="white"/>
</g>
<defs>
<radialGradient id="paint0_radial_1676_3884" cx="0" cy="0" r="1" gradientUnits="userSpaceOnUse" gradientTransform="translate(8.5 34.9646) rotate(-90) scale(31.7144 29.4969)">
<stop stop-color="#FFDD55"/>
<stop offset="0.1" stop-color="#FFDD55"/>
<stop offset="0.5" stop-color="#FF543E"/>
<stop offset="1" stop-color="#C837AB"/>
</radialGradient>
<radialGradient id="paint1_radial_1676_3884" cx="0" cy="0" r="1" gradientUnits="userSpaceOnUse" gradientTransform="translate(-5.36012 2.80512) rotate(78.681) scale(14.1765 58.436)">
<stop stop-color="#3771C8"/>
<stop offset="0.128" stop-color="#3771C8"/>
<stop offset="1" stop-color="#6600FF" stop-opacity="0"/>
</radialGradient>
<clipPath id="clip0_1676_3884">
<rect width="32" height="32" fill="white" transform="translate(0 0.5)"/>
</clipPath>
</defs>
</svg>
