<svg width="45" height="45" viewBox="0 0 45 45" fill="none" xmlns="http://www.w3.org/2000/svg">
<g filter="url(#filter0_i_1675_2084)">
<path d="M0 12.4598C0.00023347 12.3253 0.0401987 12.1931 0.116182 12.0753C0.192165 11.9576 0.301701 11.8582 0.434611 11.7864L22.0029 0.123298C22.152 0.0427514 22.3246 0 22.5009 0C22.6772 0 22.8499 0.0427514 22.999 0.123298L44.5654 11.7896C44.6983 11.8614 44.8078 11.9608 44.8838 12.0785C44.9598 12.1963 44.9998 12.3285 45 12.463V32.8239C44.9999 32.9598 44.9593 33.0935 44.8819 33.2122C44.8045 33.3309 44.693 33.4307 44.5579 33.5022L22.9896 44.8812C22.8425 44.9589 22.6729 45 22.5 45C22.3271 45 22.1575 44.9589 22.0104 44.8812L0.445803 33.5006C0.310359 33.4293 0.198471 33.3296 0.12077 33.2108C0.0430703 33.0921 0.00213899 32.9584 0.00186559 32.8223L0 12.4598Z" fill="url(#paint0_linear_1675_2084)"/>
<path d="M0 12.4598C0.00023347 12.3253 0.0401987 12.1931 0.116182 12.0753C0.192165 11.9576 0.301701 11.8582 0.434611 11.7864L22.0029 0.123298C22.152 0.0427514 22.3246 0 22.5009 0C22.6772 0 22.8499 0.0427514 22.999 0.123298L44.5654 11.7896C44.6983 11.8614 44.8078 11.9608 44.8838 12.0785C44.9598 12.1963 44.9998 12.3285 45 12.463V32.8239C44.9999 32.9598 44.9593 33.0935 44.8819 33.2122C44.8045 33.3309 44.693 33.4307 44.5579 33.5022L22.9896 44.8812C22.8425 44.9589 22.6729 45 22.5 45C22.3271 45 22.1575 44.9589 22.0104 44.8812L0.445803 33.5006C0.310359 33.4293 0.198471 33.3296 0.12077 33.2108C0.0430703 33.0921 0.00213899 32.9584 0.00186559 32.8223L0 12.4598Z" fill="url(#paint1_linear_1675_2084)"/>
</g>
<g filter="url(#filter1_i_1675_2084)">
<path d="M22.3257 44.9842C22.214 44.9659 22.1071 44.9302 22.0104 44.8789L0.445891 33.4999C0.310446 33.4286 0.198558 33.3289 0.120858 33.2102C0.0431578 33.0915 0.00222652 32.9577 0.00195312 32.8217V12.4688L21.8873 24.1063C22.0218 24.1778 22.1328 24.2775 22.2098 24.3959C22.2868 24.5142 22.3273 24.6475 22.3275 24.783L22.3257 44.9842Z" fill="url(#paint2_linear_1675_2084)"/>
</g>
<path d="M44.9474 12.1963C44.9822 12.2814 44.9998 12.371 44.9996 12.4612V32.8221C44.9995 32.958 44.9589 33.0917 44.8815 33.2104C44.8041 33.3291 44.6926 33.4289 44.5575 33.5004L22.9892 44.8794C22.7908 44.9837 22.5539 45.0207 22.3252 44.9831V24.6493C22.3251 24.5136 22.3654 24.38 22.4425 24.2614C22.5195 24.1427 22.6307 24.0428 22.7654 23.9711L44.7758 12.2681C44.8299 12.2392 44.8874 12.2151 44.9474 12.1963Z" fill="url(#paint3_linear_1675_2084)"/>
<path d="M44.9474 12.1963C44.9822 12.2814 44.9998 12.371 44.9996 12.4612V32.8221C44.9995 32.958 44.9589 33.0917 44.8815 33.2104C44.8041 33.3291 44.6926 33.4289 44.5575 33.5004L22.9892 44.8794C22.7908 44.9837 22.5539 45.0207 22.3252 44.9831V24.6493C22.3251 24.5136 22.3654 24.38 22.4425 24.2614C22.5195 24.1427 22.6307 24.0428 22.7654 23.9711L44.7758 12.2681C44.8299 12.2392 44.8874 12.2151 44.9474 12.1963Z" fill="url(#paint4_linear_1675_2084)"/>
<g filter="url(#filter2_i_1675_2084)">
<path d="M13.0576 33.4075C13.0574 33.3219 13.084 33.2379 13.1346 33.1641C13.1852 33.0904 13.258 33.0295 13.3454 32.988C13.4328 32.9464 13.5317 32.9257 13.6316 32.9279C13.7316 32.9301 13.829 32.9552 13.9138 33.0005L19.7447 36.1014C19.8794 36.1731 19.9906 36.273 20.0676 36.3917C20.1446 36.5104 20.185 36.6439 20.1849 36.7797V40.3865C20.1851 40.472 20.1585 40.5561 20.1079 40.6298C20.0572 40.7036 19.9844 40.7644 19.897 40.806C19.8096 40.8475 19.7108 40.8683 19.6109 40.8661C19.5109 40.8639 19.4135 40.8388 19.3287 40.7934L13.4978 37.6925C13.3631 37.6209 13.2519 37.521 13.1749 37.4023C13.0979 37.2836 13.0575 37.15 13.0576 37.0143V33.4075Z" fill="url(#paint5_linear_1675_2084)"/>
</g>
<g filter="url(#filter3_i_1675_2084)">
<path d="M8.33496 17.4922V21.8715L13.7853 24.6643V20.5899C13.7853 20.0441 14.1062 19.5398 14.6434 19.2461C22.0858 15.1733 35.4935 7.73948 35.8181 7.47137C36.1165 7.28464 36.5138 7.37561 36.6351 7.52084C36.6351 7.2224 36.4485 7.04685 36.3571 6.99738L31.2463 4.32898C31.0968 4.25082 30.9246 4.21027 30.7494 4.21197C30.5742 4.21366 30.4032 4.25753 30.2558 4.33855L9.359 15.8819C9.04456 16.0557 8.78606 16.2941 8.60716 16.5754C8.42826 16.8567 8.33467 17.172 8.33496 17.4922Z" fill="#966957"/>
<path d="M8.33496 17.4922V21.8715L13.7853 24.6643V20.5899C13.7853 20.0441 14.1062 19.5398 14.6434 19.2461C22.0858 15.1733 35.4935 7.73948 35.8181 7.47137C36.1165 7.28464 36.5138 7.37561 36.6351 7.52084C36.6351 7.2224 36.4485 7.04685 36.3571 6.99738L31.2463 4.32898C31.0968 4.25082 30.9246 4.21027 30.7494 4.21197C30.5742 4.21366 30.4032 4.25753 30.2558 4.33855L9.359 15.8819C9.04456 16.0557 8.78606 16.2941 8.60716 16.5754C8.42826 16.8567 8.33467 17.172 8.33496 17.4922Z" fill="url(#paint6_linear_1675_2084)"/>
<path d="M8.33496 17.4922V21.8715L13.7853 24.6643V20.5899C13.7853 20.0441 14.1062 19.5398 14.6434 19.2461C22.0858 15.1733 35.4935 7.73948 35.8181 7.47137C36.1165 7.28464 36.5138 7.37561 36.6351 7.52084C36.6351 7.2224 36.4485 7.04685 36.3571 6.99738L31.2463 4.32898C31.0968 4.25082 30.9246 4.21027 30.7494 4.21197C30.5742 4.21366 30.4032 4.25753 30.2558 4.33855L9.359 15.8819C9.04456 16.0557 8.78606 16.2941 8.60716 16.5754C8.42826 16.8567 8.33467 17.172 8.33496 17.4922Z" fill="url(#paint7_linear_1675_2084)"/>
</g>
<g filter="url(#filter4_f_1675_2084)">
<path d="M36.2566 7.17028C36.1111 7.08091 35.8836 7.13358 35.7903 7.17028L14.2518 19.1908C14.1247 19.2684 14.018 19.3679 13.9385 19.4829" stroke="#A47E73" stroke-width="0.05"/>
</g>
<g filter="url(#filter5_f_1675_2084)">
<path d="M22.792 23.8908L44.4759 12.3203" stroke="#F4CAA3" stroke-width="0.2" stroke-linecap="round"/>
</g>
<defs>
<filter id="filter0_i_1675_2084" x="0" y="0" width="45" height="45.1" filterUnits="userSpaceOnUse" color-interpolation-filters="sRGB">
<feFlood flood-opacity="0" result="BackgroundImageFix"/>
<feBlend mode="normal" in="SourceGraphic" in2="BackgroundImageFix" result="shape"/>
<feColorMatrix in="SourceAlpha" type="matrix" values="0 0 0 0 0 0 0 0 0 0 0 0 0 0 0 0 0 0 127 0" result="hardAlpha"/>
<feOffset dy="0.1"/>
<feGaussianBlur stdDeviation="0.15"/>
<feComposite in2="hardAlpha" operator="arithmetic" k2="-1" k3="1"/>
<feColorMatrix type="matrix" values="0 0 0 0 0.843137 0 0 0 0 0.694118 0 0 0 0 0.52549 0 0 0 1 0"/>
<feBlend mode="normal" in2="shape" result="effect1_innerShadow_1675_2084"/>
</filter>
<filter id="filter1_i_1675_2084" x="0.00195312" y="12.4688" width="23.3257" height="33.5156" filterUnits="userSpaceOnUse" color-interpolation-filters="sRGB">
<feFlood flood-opacity="0" result="BackgroundImageFix"/>
<feBlend mode="normal" in="SourceGraphic" in2="BackgroundImageFix" result="shape"/>
<feColorMatrix in="SourceAlpha" type="matrix" values="0 0 0 0 0 0 0 0 0 0 0 0 0 0 0 0 0 0 127 0" result="hardAlpha"/>
<feOffset dx="1" dy="1"/>
<feGaussianBlur stdDeviation="1.5"/>
<feComposite in2="hardAlpha" operator="arithmetic" k2="-1" k3="1"/>
<feColorMatrix type="matrix" values="0 0 0 0 0.831373 0 0 0 0 0.670588 0 0 0 0 0.545098 0 0 0 1 0"/>
<feBlend mode="normal" in2="shape" result="effect1_innerShadow_1675_2084"/>
</filter>
<filter id="filter2_i_1675_2084" x="12.9576" y="32.9277" width="7.22744" height="7.93848" filterUnits="userSpaceOnUse" color-interpolation-filters="sRGB">
<feFlood flood-opacity="0" result="BackgroundImageFix"/>
<feBlend mode="normal" in="SourceGraphic" in2="BackgroundImageFix" result="shape"/>
<feColorMatrix in="SourceAlpha" type="matrix" values="0 0 0 0 0 0 0 0 0 0 0 0 0 0 0 0 0 0 127 0" result="hardAlpha"/>
<feOffset dx="-0.15"/>
<feGaussianBlur stdDeviation="0.05"/>
<feComposite in2="hardAlpha" operator="arithmetic" k2="-1" k3="1"/>
<feColorMatrix type="matrix" values="0 0 0 0 0.760103 0 0 0 0 0.683293 0 0 0 0 0.795016 0 0 0 1 0"/>
<feBlend mode="normal" in2="shape" result="effect1_innerShadow_1675_2084"/>
</filter>
<filter id="filter3_i_1675_2084" x="8.23496" y="4.21191" width="28.4003" height="20.4526" filterUnits="userSpaceOnUse" color-interpolation-filters="sRGB">
<feFlood flood-opacity="0" result="BackgroundImageFix"/>
<feBlend mode="normal" in="SourceGraphic" in2="BackgroundImageFix" result="shape"/>
<feColorMatrix in="SourceAlpha" type="matrix" values="0 0 0 0 0 0 0 0 0 0 0 0 0 0 0 0 0 0 127 0" result="hardAlpha"/>
<feOffset dx="-0.1"/>
<feGaussianBlur stdDeviation="0.05"/>
<feComposite in2="hardAlpha" operator="arithmetic" k2="-1" k3="1"/>
<feColorMatrix type="matrix" values="0 0 0 0 0.47451 0 0 0 0 0.266667 0 0 0 0 0.301961 0 0 0 1 0"/>
<feBlend mode="normal" in2="shape" result="effect1_innerShadow_1675_2084"/>
</filter>
<filter id="filter4_f_1675_2084" x="13.818" y="6.99619" width="22.5516" height="12.6009" filterUnits="userSpaceOnUse" color-interpolation-filters="sRGB">
<feFlood flood-opacity="0" result="BackgroundImageFix"/>
<feBlend mode="normal" in="SourceGraphic" in2="BackgroundImageFix" result="shape"/>
<feGaussianBlur stdDeviation="0.05" result="effect1_foregroundBlur_1675_2084"/>
</filter>
<filter id="filter5_f_1675_2084" x="22.4419" y="11.9702" width="22.3843" height="12.2705" filterUnits="userSpaceOnUse" color-interpolation-filters="sRGB">
<feFlood flood-opacity="0" result="BackgroundImageFix"/>
<feBlend mode="normal" in="SourceGraphic" in2="BackgroundImageFix" result="shape"/>
<feGaussianBlur stdDeviation="0.125" result="effect1_foregroundBlur_1675_2084"/>
</filter>
<linearGradient id="paint0_linear_1675_2084" x1="22.5009" y1="-0.00118456" x2="22.5009" y2="44.9977" gradientUnits="userSpaceOnUse">
<stop stop-color="#DEB586"/>
<stop offset="1" stop-color="#D7AA82"/>
</linearGradient>
<linearGradient id="paint1_linear_1675_2084" x1="12.766" y1="19.4277" x2="13.4355" y2="18.1856" gradientUnits="userSpaceOnUse">
<stop offset="0.066" stop-color="#C99D78"/>
<stop offset="1" stop-color="#DCB185" stop-opacity="0"/>
</linearGradient>
<linearGradient id="paint2_linear_1675_2084" x1="2.97522" y1="21.1714" x2="15.4479" y2="45.5586" gradientUnits="userSpaceOnUse">
<stop stop-color="#B98875"/>
<stop offset="1" stop-color="#AA684F"/>
</linearGradient>
<linearGradient id="paint3_linear_1675_2084" x1="23.8995" y1="23.6918" x2="36.4388" y2="38.9208" gradientUnits="userSpaceOnUse">
<stop stop-color="#D7A585"/>
<stop offset="1" stop-color="#BD7943"/>
</linearGradient>
<linearGradient id="paint4_linear_1675_2084" x1="21.719" y1="37.2013" x2="23.8766" y2="37.062" gradientUnits="userSpaceOnUse">
<stop stop-color="#B46C4B"/>
<stop offset="1" stop-color="#BD7E61" stop-opacity="0"/>
</linearGradient>
<linearGradient id="paint5_linear_1675_2084" x1="14.1022" y1="33.2622" x2="17.8953" y2="41.8058" gradientUnits="userSpaceOnUse">
<stop stop-color="#CAB6CD"/>
<stop offset="1" stop-color="#D1BED7"/>
</linearGradient>
<linearGradient id="paint6_linear_1675_2084" x1="9.38512" y1="22.2704" x2="12.3654" y2="17.1012" gradientUnits="userSpaceOnUse">
<stop offset="0.649" stop-color="#8D6D6C"/>
<stop offset="0.726" stop-color="#83554C"/>
<stop offset="0.825" stop-color="#83554C"/>
<stop offset="1" stop-color="#976A58" stop-opacity="0"/>
</linearGradient>
<linearGradient id="paint7_linear_1675_2084" x1="35.2063" y1="6.18664" x2="33.6576" y2="8.22289" gradientUnits="userSpaceOnUse">
<stop stop-color="#9C6F5D"/>
<stop offset="1" stop-color="#9C6F5D" stop-opacity="0"/>
</linearGradient>
</defs>
</svg>
