<svg width="26" height="27" viewBox="0 0 26 27" fill="none" xmlns="http://www.w3.org/2000/svg">
<path d="M13.0001 6.83313C14.7683 6.83313 16.464 7.53553 17.7143 8.78582C18.9646 10.0361 19.667 11.7318 19.667 13.5M11.667 1.58001C12.1093 1.52607 12.5545 1.49935 13.0001 1.50001C16.1827 1.50001 19.235 2.76429 21.4854 5.01473C23.7358 7.26517 25.0001 10.3174 25.0001 13.5C25.0001 13.9459 24.9734 14.3903 24.9201 14.8331" stroke="#344054" stroke-width="1.28" stroke-linecap="round" stroke-linejoin="round"/>
<path d="M17.0002 25.4999C14.9333 25.0071 12.9727 24.1441 11.2134 22.9527L13.6402 19.4736C14.0392 18.9292 14.6298 18.5563 15.293 18.4301C15.9561 18.304 16.6423 18.434 17.2134 18.7939C17.6537 19.0736 18.1068 19.3271 18.5471 19.5805C18.8783 19.7424 19.1723 19.9713 19.4106 20.2526C19.6489 20.5339 19.8262 20.8616 19.9315 21.2149C20.0367 21.5683 20.0676 21.9396 20.0221 22.3054C19.9766 22.6713 19.8557 23.0237 19.6671 23.3405L18.8402 24.6077C18.6922 24.9529 18.4247 25.2332 18.0867 25.3972C17.7488 25.5612 17.363 25.5972 17.0002 25.4999ZM1.89368 7.72705L3.2268 6.89954C3.53603 6.69885 3.8835 6.56446 4.24728 6.50484C4.61106 6.44522 4.98326 6.46166 5.34036 6.55313C5.69747 6.6446 6.03174 6.80912 6.32206 7.03629C6.61238 7.26346 6.85245 7.54835 7.02712 7.87298C7.28056 8.35298 7.53336 8.80673 7.81368 9.20673C8.17354 9.77784 8.30344 10.4642 8.17719 11.1273C8.05093 11.7904 7.67791 12.3809 7.13336 12.7799L3.58712 15.2464C2.38612 13.5021 1.50978 11.5554 1.00024 9.49985C0.920502 9.1466 0.966018 8.77661 1.129 8.45321C1.29198 8.12981 1.5623 7.87312 1.89368 7.72705Z" stroke="#306CFE" stroke-width="1.28" stroke-linecap="round" stroke-linejoin="round"/>
<path d="M3.58691 15.2471C4.56715 16.7834 5.72146 18.2014 7.02691 19.473C8.29869 20.7785 9.71693 21.9328 11.2535 22.913" stroke="#306CFE" stroke-width="1.28" stroke-linecap="round" stroke-linejoin="round"/>
</svg>
