<svg width="32" height="33" viewBox="0 0 32 33" fill="none" xmlns="http://www.w3.org/2000/svg">
<g clip-path="url(#clip0_1676_3867)">
<path d="M0.686334 16.3081C0.685585 18.9967 1.3934 21.6219 2.73931 23.9359L0.557617 31.8418L8.70955 29.7204C10.9643 30.9386 13.4905 31.577 16.0577 31.5772H16.0644C24.5392 31.5772 31.4378 24.7327 31.4414 16.3201C31.443 12.2436 29.8449 8.41027 26.9414 5.5263C24.0384 2.64258 20.1775 1.05362 16.0638 1.05176C7.58808 1.05176 0.689959 7.89579 0.686459 16.3081" fill="url(#paint0_linear_1676_3867)"/>
<path d="M0.137622 16.3035C0.136748 19.0889 0.869936 21.808 2.26383 24.2048L0.00390625 32.3942L8.44814 30.1967C10.7748 31.4558 13.3944 32.1196 16.06 32.1206H16.0668C24.8456 32.1206 31.992 25.03 31.9958 16.3162C31.9973 12.0932 30.3417 8.12208 27.3345 5.13479C24.3269 2.14788 20.3279 0.501736 16.0668 0.5C7.28656 0.5 0.141121 7.58961 0.137622 16.3035ZM5.16647 23.792L4.85118 23.2953C3.52576 21.2036 2.82619 18.7865 2.82719 16.3045C2.82994 9.06174 8.76893 3.16915 16.0718 3.16915C19.6084 3.17064 22.9321 4.53895 25.4319 7.02155C27.9317 9.5044 29.3072 12.8049 29.3063 16.3152C29.3031 23.558 23.364 29.4513 16.0668 29.4513H16.0616C13.6856 29.4501 11.3553 28.8168 9.32304 27.62L8.83941 27.3353L3.82844 28.6393L5.16647 23.792Z" fill="url(#paint1_linear_1676_3867)"/>
<path d="M12.0854 9.69662C11.7872 9.03888 11.4734 9.02561 11.1898 9.01407C10.9576 9.00415 10.6922 9.0049 10.427 9.0049C10.1616 9.0049 9.73033 9.104 9.3658 9.49904C9.0009 9.89445 7.97266 10.85 7.97266 12.7934C7.97266 14.7369 9.39892 16.6152 9.59774 16.879C9.79682 17.1423 12.3512 21.2582 16.3966 22.8415C19.7588 24.1574 20.443 23.8957 21.1727 23.8297C21.9025 23.764 23.5276 22.8744 23.8591 21.952C24.1909 21.0297 24.1909 20.2391 24.0914 20.0739C23.992 19.9093 23.7265 19.8105 23.3285 19.613C22.9305 19.4156 20.9736 18.4598 20.6088 18.3279C20.2439 18.1962 19.9786 18.1305 19.7132 18.526C19.4477 18.9209 18.6856 19.8105 18.4532 20.0739C18.2212 20.338 17.9889 20.3708 17.591 20.1733C17.1927 19.9751 15.9109 19.5584 14.3902 18.2128C13.207 17.1658 12.4082 15.8727 12.176 15.4772C11.9438 15.0823 12.1511 14.8682 12.3507 14.6714C12.5295 14.4944 12.7488 14.2101 12.948 13.9795C13.1465 13.7488 13.2127 13.5842 13.3454 13.3208C13.4783 13.0571 13.4118 12.8264 13.3124 12.6288C13.2127 12.4313 12.4393 10.4776 12.0854 9.69662Z" fill="white"/>
</g>
<defs>
<linearGradient id="paint0_linear_1676_3867" x1="1544.75" y1="3080.06" x2="1544.75" y2="1.05176" gradientUnits="userSpaceOnUse">
<stop stop-color="#1FAF38"/>
<stop offset="1" stop-color="#60D669"/>
</linearGradient>
<linearGradient id="paint1_linear_1676_3867" x1="1599.6" y1="3189.92" x2="1599.6" y2="0.5" gradientUnits="userSpaceOnUse">
<stop stop-color="#F9F9F9"/>
<stop offset="1" stop-color="white"/>
</linearGradient>
<clipPath id="clip0_1676_3867">
<rect width="32" height="32" fill="white" transform="translate(0 0.5)"/>
</clipPath>
</defs>
</svg>
